<?xml version="1.0" standalone="no"?>
<!DOCTYPE svg PUBLIC "-//W3C//DTD SVG 1.1//EN" "http://www.w3.org/Graphics/SVG/1.1/DTD/svg11.dtd" >
<svg xmlns="http://www.w3.org/2000/svg">
<metadata></metadata>
<defs>
<font id="stagblack_italic" horiz-adv-x="1566" >
<font-face units-per-em="2048" ascent="1638" descent="-410" />
<missing-glyph horiz-adv-x="245" />
<glyph unicode="&#xfb01;" horiz-adv-x="1390" d="M-186 -332l63 277q51 11 81 44.5t48 110.5l148 668h-99l72 317h96l6 29q41 189 161 270.5t315 81.5q135 0 229 -32l-64 -269h-22q-42 0 -64.5 -15t-31.5 -56l-2 -9h387q128 0 188.5 -68.5t32.5 -187.5l-113 -483q-3 -14 7 -31.5t22 -17.5h63l-57 -250q-109 -67 -332 -67 q-156 0 -220 68.5t-28 223.5l113 496h-133l-145 -672q-36 -167 -137.5 -277.5t-227.5 -150.5h-356zM938 1303q0 105 70.5 164t175.5 59q98 0 155.5 -51t57.5 -132q0 -108 -69.5 -166.5t-174.5 -58.5q-99 0 -157 51t-58 134z" />
<glyph unicode="&#xfb02;" horiz-adv-x="1388" d="M-186 -332l63 277q51 11 81 44.5t48 110.5l148 668h-99l72 317h96l6 29q41 192 166 272t350 80q112 0 252 -32h418q33 0 50.5 -29t7.5 -72l-228 -987q-3 -14 7 -31.5t22 -17.5h65l-57 -250q-109 -67 -334 -67q-156 0 -220 68.5t-28 223.5l205 893h-39q-61 0 -83 -14 t-31 -57l-2 -9h96l-72 -317h-94l-145 -672q-36 -167 -137.5 -277.5t-227.5 -150.5h-356z" />
<glyph unicode="&#xfb03;" horiz-adv-x="2052" d="M-186 -332l63 277q51 11 81 44.5t48 110.5l146 668h-97l72 317h94l2 9q41 189 159.5 269.5t313.5 80.5q140 0 228 -31l-60 -256h-10q-48 0 -71.5 -15.5t-32.5 -56.5h135l6 29q41 190 160.5 271t314.5 81q135 0 229 -32l-63 -269h-23q-42 0 -64.5 -15t-31.5 -56l-2 -9h387 q128 0 188.5 -68.5t32.5 -187.5l-112 -483q-3 -14 6.5 -31.5t21.5 -17.5h64l-57 -250q-109 -67 -332 -67q-156 0 -220 68.5t-28 223.5l113 496h-134l-145 -672q-36 -167 -137.5 -277.5t-227.5 -150.5h-339l63 277q43 11 69 44.5t44 110.5l147 668h-135l-145 -672 q-36 -167 -137.5 -277.5t-227.5 -150.5h-356zM1599 1303q0 105 70.5 164t175.5 59q98 0 155.5 -51t57.5 -132q0 -108 -69 -166.5t-174 -58.5q-99 0 -157.5 51t-58.5 134z" />
<glyph unicode="&#xfb04;" horiz-adv-x="2050" d="M-186 -332l63 277q51 11 81 44.5t48 110.5l146 668h-97l72 317h94l2 9q41 189 159.5 269.5t313.5 80.5q140 0 228 -31l-60 -256h-10q-48 0 -71.5 -15.5t-32.5 -56.5h135l6 29q41 192 166 272t350 80q112 0 252 -32h418q33 0 50 -29t7 -72l-227 -987q-3 -14 6.5 -31.5 t21.5 -17.5h66l-57 -250q-109 -67 -334 -67q-156 0 -220 68.5t-28 223.5l205 893h-39q-61 0 -83.5 -14t-31.5 -57l-2 -9h94l-71 -317h-93l-145 -672q-36 -167 -137.5 -277.5t-227.5 -150.5h-339l63 277q43 11 69 44.5t44 110.5l147 668h-135l-145 -672 q-36 -167 -137.5 -277.5t-227.5 -150.5h-356z" />
<glyph horiz-adv-x="2048" />
<glyph horiz-adv-x="2048" />
<glyph unicode="&#xd;" horiz-adv-x="2048" />
<glyph unicode=" "  horiz-adv-x="245" />
<glyph unicode="&#x09;" horiz-adv-x="245" />
<glyph unicode="&#xa0;" horiz-adv-x="245" />
<glyph unicode="!" horiz-adv-x="557" d="M-25 184q0 101 70 167.5t166 66.5t159.5 -60.5t63.5 -146.5q0 -97 -69.5 -162t-165.5 -65q-95 0 -159.5 60t-64.5 140zM129 463l25 663l71 308h525l-72 -308l-299 -663h-250z" />
<glyph unicode="&#x22;" horiz-adv-x="925" d="M170 1200l55 234h430l-55 -234l-182 -369h-238zM633 1200l55 234h430l-55 -234l-182 -369h-238z" />
<glyph unicode="#" horiz-adv-x="995" d="M-14 334l82 354h147l29 107h-135l81 354h150l78 285h264l-78 -285h105l77 285h265l-78 -285h135l-82 -354h-149l-29 -107h137l-82 -354h-151l-90 -334h-265l90 334h-104l-90 -334h-264l90 334h-133zM479 688h105l28 107h-104z" />
<glyph unicode="$" horiz-adv-x="1169" d="M-88 70l88 383h272q14 -69 54.5 -101.5t122.5 -32.5q61 0 104 27t43 80q0 31 -27.5 50.5t-103.5 45.5q-60 20 -106 40t-95 51.5t-80.5 68.5t-52 90.5t-20.5 116.5q0 219 142 358t390 172l39 166h330l-39 -166q150 -13 309 -55l-82 -354h-260q-17 62 -49.5 92.5 t-102.5 30.5q-72 0 -110.5 -27.5t-38.5 -75.5q0 -33 24 -49.5t101 -42.5q213 -74 297 -161.5t84 -227.5q0 -102 -31.5 -190t-94.5 -160.5t-168 -120.5t-243 -64l-51 -223h-330l52 219q-169 10 -367 60z" />
<glyph unicode="%" horiz-adv-x="1841" d="M133 971q0 112 42 205.5t110.5 153t153 92t173.5 32.5q157 0 259 -86t102 -235q0 -112 -42.5 -205.5t-112 -153t-155.5 -92.5t-176 -33q-156 0 -255 85.5t-99 236.5zM180 -70l1288 1563h271l-1288 -1563h-271zM463 940q0 -76 53 -76q34 0 63.5 53.5t43.5 120t14 121.5 q0 76 -53 76q-34 0 -63.5 -53.5t-43.5 -120t-14 -121.5zM952 301q0 112 42 205.5t111 153t153.5 92t173.5 32.5q157 0 258.5 -85.5t101.5 -235.5q0 -112 -42.5 -205.5t-112 -153t-155 -92t-175.5 -32.5q-156 0 -255.5 85t-99.5 236zM1282 270q0 -75 53 -75q34 0 63.5 53 t43.5 119.5t14 121.5q0 76 -53 76q-34 0 -63.5 -53.5t-43.5 -120t-14 -121.5z" />
<glyph unicode="&#x26;" d="M-10 362q0 100 33.5 184t94 142.5t137 98.5t169.5 61q-21 64 -21 125q0 151 69 261.5t188 166t274 55.5q152 0 237 -22h351l-97 -435h-327l-15 115q-66 7 -98.5 -22t-32.5 -84q0 -24 12.5 -54t27 -52.5t44.5 -63.5l119 -166q40 79 82 196h373l-47 -204 q-76 -146 -199 -281l33 -45q18 -24 30 -32.5t31 -8.5h37l-68 -297h-444l-47 63q-180 -83 -361 -83q-156 0 -271 29t-182.5 82t-99.5 120.5t-32 150.5zM512 455q0 -70 45.5 -109t130.5 -39q36 0 70 6l-197 275q-49 -62 -49 -133z" />
<glyph unicode="'" horiz-adv-x="503" d="M170 1200l55 234h471l-55 -234l-197 -369h-247z" />
<glyph unicode="(" horiz-adv-x="710" d="M33 518q0 150 35 290.5t96 253t143 205t175.5 155.5t193.5 96h246l-64 -277q-105 -34 -192 -145t-137 -275t-50 -344q0 -236 131 -311l-61 -266h-215q-301 219 -301 618z" />
<glyph unicode=")" horiz-adv-x="712" d="M-129 -100l61 266q106 43 193 155.5t137.5 275.5t50.5 343q0 231 -133 301l64 277h215q301 -213 301 -619q0 -187 -52 -354.5t-141 -292.5t-204 -215t-246 -137h-246z" />
<glyph unicode="*" horiz-adv-x="845" d="M109 967l106 90l289 -21l-279 62l-53 112l119 131l129 -38l108 -236l-71 254l78 113h186l24 -146l-180 -227l209 192h148l47 -155l-105 -90l-289 18l279 -59l51 -113l-108 -131l-135 37l-113 237l72 -249l-76 -113h-187l-26 145l180 224l-211 -193h-147z" />
<glyph unicode="+" horiz-adv-x="1067" d="M14 528l82 359h324l80 348h393l-80 -348h322l-82 -359h-324l-80 -348h-393l80 348h-322z" />
<glyph unicode="," horiz-adv-x="483" d="M-168 -258l41 174q69 12 112.5 36.5t43.5 61.5q0 13 -6 21.5t-21.5 22t-26.5 26.5q-16 21 -21 28.5t-12.5 29t-7.5 46.5q0 100 66.5 165t171.5 65q93 0 153 -58.5t60 -164.5q0 -207 -148.5 -324t-404.5 -129z" />
<glyph unicode="-" horiz-adv-x="604" d="M0 426l84 367h555l-84 -367h-555z" />
<glyph unicode="." horiz-adv-x="479" d="M-68 184q0 101 70 167.5t166 66.5t159.5 -60.5t63.5 -146.5q0 -97 -69.5 -162t-165.5 -65q-95 0 -159.5 60t-64.5 140z" />
<glyph unicode="/" horiz-adv-x="780" d="M-168 -100l852 1618h342l-852 -1618h-342z" />
<glyph unicode="0" horiz-adv-x="1462" d="M45 555q0 168 65 339t169 290q244 274 616 274q278 0 442 -164t164 -430q0 -169 -63.5 -337t-167.5 -285q-122 -136 -279.5 -201.5t-333.5 -65.5q-289 0 -450.5 158.5t-161.5 421.5zM598 471q0 -145 94 -145q45 0 80.5 34.5t67.5 110.5q40 96 71 232t31 233 q0 70 -22 104.5t-72 34.5q-44 0 -79 -33t-67 -106q-39 -94 -71.5 -234.5t-32.5 -230.5z" />
<glyph unicode="1" horiz-adv-x="911" d="M-86 0l68 297h108q15 0 36 20t24 35l157 686l-108 -55h-78l74 324l337 127h433l-250 -1082q-3 -16 6.5 -35.5t23.5 -19.5h95l-68 -297h-858z" />
<glyph unicode="2" horiz-adv-x="1167" d="M-106 0l55 236q23 99 63 177.5t98 138.5t121.5 104.5t149.5 88.5q18 9 53 27q60 30 87 44.5t65 37.5t54 39.5t28 39t12 46.5q0 80 -102 80q-51 0 -100.5 -26t-80.5 -64h-266l94 409q201 78 473 78q562 0 562 -385q0 -99 -28.5 -179.5t-82.5 -139.5t-116.5 -101 t-147.5 -80q-38 -18 -120 -52.5t-129 -56t-93.5 -50.5t-59.5 -54h244l61 95h322l-104 -453h-1112z" />
<glyph unicode="3" horiz-adv-x="1177" d="M-88 78l80 344h276q46 -90 162 -90q65 0 106.5 34t41.5 97q0 41 -32.5 64.5t-92.5 23.5h-138l74 317h133q152 0 152 121q0 36 -28 61t-81 25q-96 0 -166 -76h-256l90 394q212 65 453 65q270 0 408.5 -92t138.5 -258q0 -327 -348 -387v-8q248 -57 248 -267 q0 -222 -177.5 -346.5t-484.5 -124.5q-190 0 -334.5 30t-224.5 73z" />
<glyph unicode="4" horiz-adv-x="1269" d="M-16 389l82 361l761 684h531l-168 -727h104l-73 -318h-105l-8 -37q-3 -16 7 -35.5t24 -19.5h59l-68 -297h-780l68 297h74q15 0 35.5 20t23.5 35l8 37h-575zM420 707h235l66 276h-8l-293 -268v-8z" />
<glyph unicode="5" horiz-adv-x="1171" d="M-90 70l82 352h282q17 -42 49.5 -66t102.5 -24q67 0 109.5 42.5t42.5 114.5q0 45 -27 72t-80 27q-73 0 -129 -56h-299l209 902h1028l-102 -445h-322l-18 68h-297l-56 -240h7q49 42 121 70t157 28q181 0 280 -96t99 -268q0 -184 -87 -315t-241.5 -196t-361.5 -65 q-351 0 -549 95z" />
<glyph unicode="6" horiz-adv-x="1351" d="M33 498q0 193 62.5 368t168.5 299q251 291 709 291q274 0 459 -70l-89 -382h-249q-64 57 -170 57q-136 0 -224 -137q-30 -49 -55 -117q138 111 328 111q171 0 266.5 -87t95.5 -245q-1 -181 -91.5 -320.5t-250.5 -215t-364 -75.5q-281 0 -438.5 141t-157.5 382zM573 424 q0 -117 68 -117q60 0 97.5 66t37.5 151q0 82 -94 82q-36 0 -92 -18q-17 -104 -17 -164z" />
<glyph unicode="7" horiz-adv-x="1138" d="M88 0l53 231l738 799v8h-377l-78 -133h-322l123 529h1106l-96 -418l-586 -1016h-561z" />
<glyph unicode="8" horiz-adv-x="1347" d="M-18 356q0 157 97.5 264t266.5 148v8q-166 65 -166 232q0 107 53 193.5t144 142t208.5 85t250.5 29.5q261 0 418 -101t157 -265q0 -125 -80 -213t-221 -125v-9q201 -72 201 -260q0 -237 -186 -373.5t-509 -136.5q-309 0 -471.5 104.5t-162.5 276.5zM537 418 q0 -107 96 -107q67 0 106 61.5t39 137.5q0 106 -96 106q-67 0 -106 -61t-39 -137zM682 965q0 -37 21 -60.5t61 -23.5q53 0 85 45t32 106q-2 41 -21.5 66.5t-58.5 25.5q-53 0 -86 -49t-33 -110z" />
<glyph unicode="9" horiz-adv-x="1349" d="M-33 47l88 365h256q65 -58 170 -58q96 0 152 36t102 108q33 57 51 112q-134 -108 -323 -108q-171 0 -267 89.5t-96 254.5q0 178 91 318t252 217t364 77q281 0 438.5 -141t157.5 -381q0 -194 -63.5 -375.5t-168.5 -304.5q-122 -142 -302.5 -210.5t-436.5 -68.5 q-280 0 -465 70zM659 903q0 -88 95 -88q44 0 90 16q18 102 18 179q0 116 -67 116q-60 0 -98 -69t-38 -154z" />
<glyph unicode=":" horiz-adv-x="464" d="M-70 178q0 98 68 163t162 65q92 0 153.5 -59t61.5 -142q0 -94 -67.5 -157.5t-160.5 -63.5q-92 0 -154.5 58.5t-62.5 135.5zM61 748q0 97 68.5 162t161.5 65q92 0 154.5 -59t62.5 -142q0 -94 -68 -157.5t-161 -63.5q-92 0 -155 59t-63 136z" />
<glyph unicode=";" horiz-adv-x="468" d="M-168 -250l41 170q152 26 152 94q0 12 -6 20t-21.5 21t-26.5 27q-13 16 -19.5 26t-13 30t-6.5 44q0 97 64.5 160.5t165.5 63.5q91 0 149 -57t58 -161q0 -201 -144 -313.5t-393 -124.5zM61 748q0 97 68.5 162t161.5 65q92 0 154.5 -59t62.5 -142q0 -94 -68 -157.5 t-161 -63.5q-92 0 -155 59t-63 136z" />
<glyph unicode="&#x3c;" horiz-adv-x="909" d="M20 555l66 281l825 362h131l-88 -385l-401 -139v-6l328 -172l-80 -346h-119z" />
<glyph unicode="=" horiz-adv-x="1013" d="M-37 252l78 338h956l-77 -338h-957zM59 662l78 337h957l-78 -337h-957z" />
<glyph unicode="&#x3e;" horiz-adv-x="909" d="M-68 150l88 385l402 139v6l-328 172l80 346h119l661 -405l-65 -281l-826 -362h-131z" />
<glyph unicode="?" horiz-adv-x="1011" d="M113 184q0 101 69.5 167.5t165.5 66.5t159.5 -60.5t63.5 -146.5q0 -97 -69.5 -162t-165.5 -65q-95 0 -159 60t-64 140zM131 1014l86 368q176 76 426 76q242 0 361.5 -92t119.5 -240q0 -80 -22 -145.5t-53.5 -109t-86 -84.5t-99.5 -65.5t-113 -58.5q-6 -3 -9 -4 q-47 -24 -73.5 -39t-57.5 -39.5t-46 -53t-19 -64.5h-320q-12 230 178 383q16 13 59.5 44.5t64.5 49.5t41 47.5t20 59.5q0 59 -66 59q-33 0 -61.5 -25.5t-48.5 -66.5h-281z" />
<glyph unicode="@" horiz-adv-x="1775" d="M51 492q0 164 55.5 308t147 245.5t209.5 175.5t244.5 109.5t250.5 35.5q158 0 300.5 -45.5t252.5 -129t175 -213.5t65 -288q0 -140 -44 -247t-123 -172.5t-182 -98.5t-226 -33q-213 0 -267 129q-109 -121 -250 -121q-114 0 -179.5 71.5t-65.5 201.5q0 109 40.5 211 t104.5 172q113 119 268 119q135 0 211 -95q69 80 111 80h264l-108 -485q-12 -54 -3.5 -76t39.5 -22q35 0 73 22.5t73.5 65t58.5 115.5t23 163q0 245 -168 384.5t-443 139.5q-105 0 -206 -27.5t-192.5 -85.5t-160.5 -141.5t-110 -204t-41 -263.5q0 -159 48 -279t136 -192.5 t203 -108t258 -35.5q294 0 485 123h127l-28 -129q-106 -64 -260.5 -104.5t-323.5 -40.5q-131 0 -252 27.5t-229 88t-188 148.5t-126.5 217t-46.5 285zM807 440q0 -65 57 -65q23 0 31 2l72 309q-12 6 -31 6q-57 0 -93 -77.5t-36 -174.5z" />
<glyph unicode="A" d="M-106 0l67 297h14q24 0 51 17.5t42 43.5l415 715q8 12 0 32.5t-24 20.5h-47l71 308h860l82 -1096q1 -13 17.5 -27t27.5 -14h25l-68 -297h-790l68 297h147l-4 139h-338q-25 -53 -25 -85q-1 -13 3 -21q12 -34 79 -33h37l-67 -297h-643zM637 674h203l-11 340h-6z" />
<glyph unicode="B" horiz-adv-x="1429" d="M-106 0l67 297h59q15 0 36 20t24 35l166 719q3 16 -8 35.5t-25 19.5h-59l71 308h711q267 0 407 -85.5t140 -250.5q0 -149 -86.5 -233.5t-251.5 -121.5v-8q124 -30 186 -94.5t62 -175.5q0 -148 -86.5 -254.5t-235 -158.5t-344.5 -52h-833zM623 305h55q76 0 116 46.5 t40 125.5q0 51 -29 79t-80 28h-39zM752 866h55q70 0 104.5 41.5t34.5 110.5q0 48 -25.5 74t-74.5 26h-35z" />
<glyph unicode="C" horiz-adv-x="1316" d="M45 528q0 260 105.5 473.5t290.5 335t411 121.5q157 0 274 -24h379l-125 -539h-346l-20 188q-42 7 -68 7q-86 0 -159 -70.5t-117.5 -199.5t-44.5 -288q0 -92 36 -138t117 -46q66 0 116 31t105 94h283l-86 -379q-190 -119 -506 -119t-480.5 146.5t-164.5 406.5z" />
<glyph unicode="D" horiz-adv-x="1558" d="M-106 0l67 297h49q15 0 41 20t29 35l166 719q3 15 -12.5 35t-30.5 20h-49l71 308h652q345 0 530.5 -155.5t185.5 -432.5q0 -137 -34.5 -259.5t-109.5 -230.5t-185.5 -186.5t-272.5 -124t-360 -45.5h-737zM635 311h33q161 0 257.5 151t96.5 398q0 115 -47 179.5t-131 64.5 h-27z" />
<glyph unicode="E" horiz-adv-x="1310" d="M-106 0l67 297h59q15 0 36 20t24 35l166 719q3 16 -8 35.5t-25 19.5h-59l71 308h1248l-115 -494h-314l-18 162h-209l-49 -209h301l-76 -322h-299l-57 -249h219l90 198h338l-121 -520h-1269z" />
<glyph unicode="F" horiz-adv-x="1269" d="M-106 0l67 297h59q15 0 36 20t24 35l166 719q3 16 -8 35.5t-25 19.5h-59l71 308h1237l-121 -525h-317l-12 193h-195l-61 -260h299l-78 -338h-299l-47 -207h139l-68 -297h-808z" />
<glyph unicode="G" horiz-adv-x="1470" d="M45 510q0 156 38.5 298.5t113.5 260t178 204.5t240 135t292 48q125 0 250 -22h375l-121 -523h-348l-27 170q-32 9 -71 9q-95 0 -173 -87.5t-120 -224t-43 -289.5q0 -86 27 -126.5t92 -40.5q30 0 53 10l30 139h-77l67 289h686l-69 -297h-33q-15 0 -34.5 -19.5t-22.5 -35.5 l-95 -408h-276q-1 4 -3.5 10.5t-15 17.5t-28.5 11q-43 -26 -125 -45t-164 -19q-285 0 -440.5 146t-155.5 389z" />
<glyph unicode="H" horiz-adv-x="1589" d="M-106 0l67 297h59q15 0 36 20t24 35l166 719q3 16 -8 35.5t-25 19.5h-59l71 308h762l-72 -308h-92l-61 -264h217l61 264h-92l72 308h762l-72 -308h-59q-15 0 -35 -19.5t-23 -35.5l-166 -719q-3 -16 7 -35.5t24 -19.5h60l-68 -297h-762l68 297h92l65 287h-217l-65 -287h92 l-68 -297h-761z" />
<glyph unicode="I" horiz-adv-x="823" d="M-106 0l67 297h68q15 0 35.5 20t23.5 35l166 719q3 16 -8 35.5t-25 19.5h-67l71 308h791l-72 -308h-67q-15 0 -35 -19.5t-23 -35.5l-166 -719q-3 -16 7 -35.5t24 -19.5h68l-68 -297h-790z" />
<glyph unicode="J" horiz-adv-x="1175" d="M-92 63l82 355h262q12 -37 38 -60.5t66 -23.5q77 0 101 96l149 641q3 16 -8 35.5t-25 19.5h-84l72 308h807l-72 -308h-67q-15 0 -35 -19.5t-23 -35.5l-133 -575q-43 -189 -117 -297t-208.5 -161.5t-352.5 -53.5q-276 0 -452 79z" />
<glyph unicode="K" horiz-adv-x="1540" d="M-106 0l67 297h59q15 0 36 20t24 35l166 719q3 16 -8 35.5t-25 19.5h-59l71 308h750l-72 -308h-80l-57 -245l211 149q36 27 36 55q0 5 -1 9q-6 32 -49 32h-27l72 308h725l-72 -308h-8q-21 0 -43.5 -14.5t-65.5 -50.5l-330 -268l172 -441q20 -55 54 -55h28l-67 -297h-621 l41 258l-94 256l-53 -33l-43 -184h102l-67 -297h-772z" />
<glyph unicode="L" horiz-adv-x="1280" d="M-106 0l67 297h59q15 0 36 20t24 35l166 719q3 16 -8 35.5t-25 19.5h-59l71 308h817l-71 -308h-148l-186 -804h194l101 235h338l-129 -557h-1247z" />
<glyph unicode="M" horiz-adv-x="1970" d="M-106 0l67 297h59q15 0 36 20t24 35l166 719q3 16 -8 35.5t-25 19.5h-59l71 308h819l11 -490h6l203 490h899l-72 -308h-59q-15 0 -35 -19.5t-23 -35.5l-166 -719q-3 -16 7 -35.5t24 -19.5h59l-67 -297h-729l67 297h80l150 641h-6l-451 -938h-297l-22 938h-7l-149 -641 h113l-68 -297h-618z" />
<glyph unicode="N" horiz-adv-x="1511" d="M-106 0l67 297h59q15 0 36 20t24 35l166 719q3 16 -8 35.5t-25 19.5h-59l71 308h643l179 -662h6l82 354h-107l72 308h604l-72 -308h-51q-15 0 -34.5 -19.5t-22.5 -35.5l-248 -1071h-477l-221 748h-7l-104 -451h113l-68 -297h-618z" />
<glyph unicode="O" horiz-adv-x="1552" d="M45 565q0 194 73 362.5t194.5 283.5t283 181t336.5 66q299 0 479 -161t180 -435q0 -199 -69 -367t-187 -281t-275 -176t-333 -63q-322 0 -502 158t-180 432zM608 532q0 -206 146 -206q77 0 140 81.5t96.5 205t33.5 255.5q0 207 -143 207q-77 0 -141 -79.5t-98 -203.5 t-34 -260z" />
<glyph unicode="P" horiz-adv-x="1415" d="M-106 0l67 297h59q15 0 36 20t24 35l166 719q3 16 -8 35.5t-25 19.5h-59l71 308h690q300 0 443 -96.5t143 -293.5q0 -276 -182 -410t-553 -134h-88l-47 -203h137l-68 -297h-806zM729 793h49q77 0 114.5 55t37.5 151q0 103 -88 103h-41z" />
<glyph unicode="Q" horiz-adv-x="1552" d="M45 565q0 160 48.5 303t133 249t196.5 184t242.5 117.5t266.5 39.5q299 0 479 -161t180 -435q0 -256 -133.5 -426t-357.5 -241v-7q127 -6 229.5 -40.5t157.5 -77.5l-70 -301h-383q-46 79 -144 127.5t-280 80.5q-127 22 -227.5 66t-177.5 114t-118.5 173.5t-41.5 234.5z M608 532q0 -106 38 -161.5t108 -55.5q77 0 140 84.5t96.5 210.5t33.5 258q0 207 -143 207q-77 0 -141 -79.5t-98 -203.5t-34 -260z" />
<glyph unicode="R" horiz-adv-x="1501" d="M-106 0l67 297h59q15 0 36 20t24 35l166 719q3 16 -8 35.5t-25 19.5h-59l71 308h738q289 0 426 -97t135 -270q0 -147 -95 -248.5t-270 -144.5v-8q85 -20 132 -76t63 -180l8 -62q4 -28 18 -39.5t31 -11.5h19l-68 -297h-543l-14 389q-3 66 -22.5 92.5t-61.5 26.5h-41 l-49 -211h102l-67 -297h-772zM731 805h45q172 0 172 188q0 55 -27 82t-87 27h-33z" />
<glyph unicode="S" horiz-adv-x="1171" d="M-106 0l106 463h356l25 -156q33 -10 80 -10q65 0 105 27.5t40 72.5q0 39 -30 62.5t-109 52.5q-65 24 -108.5 43t-95 52.5t-82 72t-51.5 96.5t-21 129q0 260 172 406.5t458 146.5q167 0 299 -24h283l-100 -430h-349l-20 143q-30 10 -72 10q-67 0 -108 -27.5t-41 -78.5 q0 -38 23.5 -60t70.5 -39q240 -89 332 -182t92 -256q0 -118 -38 -215.5t-112 -170t-190 -113t-264 -40.5q-162 0 -312 25h-339z" />
<glyph unicode="T" horiz-adv-x="1433" d="M94 866l131 568h1401l-131 -568h-328l13 246h-47l-175 -760q-3 -16 7 -35.5t24 -19.5h68l-68 -297h-790l67 297h68q15 0 35.5 20t23.5 35l174 760h-55l-96 -246h-322z" />
<glyph unicode="U" horiz-adv-x="1501" d="M94 400v9q0 72 21 154l118 508q3 16 -7.5 35.5t-24.5 19.5h-47l71 308h787l-72 -308h-129l-147 -634q-7 -30 -7 -55q0 -107 131 -107q72 0 109 35.5t53 107.5l152 653h-129l71 308h650l-72 -308h-47q-15 0 -34.5 -19.5t-22.5 -35.5l-142 -606q-60 -253 -224.5 -367 t-432.5 -114q-131 0 -235 18.5t-176 54t-121 86.5t-70 116t-23 141z" />
<glyph unicode="V" horiz-adv-x="1527" d="M154 1126l71 308h754l-72 -308h-116l32 -587h6l215 424q31 61 31 99q0 64 -86 64h-10l72 308h669l-71 -308h-23q-20 0 -46 -19.5t-38 -41.5l-624 -1065h-560l-135 1085q-1 15 -14 28t-27 13h-28z" />
<glyph unicode="W" horiz-adv-x="2091" d="M154 1126l71 308h729l-71 -308h-105v-426h6l326 734h354l17 -734h6l123 263q28 61 28 100q0 63 -77 63h-5l72 308h656l-72 -308h-21q-21 0 -48.5 -19t-37.5 -42l-522 -1065h-500l-20 633h-6l-291 -633h-512l-31 1085q0 12 -14 26.5t-27 14.5h-28z" />
<glyph unicode="X" horiz-adv-x="1505" d="M-106 0l67 297h33q41 0 80 39l358 364l-201 369q-25 57 -63 57h-14l71 308h750l-68 -287h-96l94 -201l86 88q35 36 35 67q0 6 -1 11q-8 35 -58 35h-27l68 287h690l-72 -308h-29q-18 0 -43.5 -15t-44.5 -34l-354 -360l193 -363q26 -57 69 -57h17l-68 -297h-754l64 276h92 l-98 201l-80 -90q-33 -36 -33 -66q-1 -6 1 -11q8 -34 63 -34h22l-63 -276h-686z" />
<glyph unicode="Y" horiz-adv-x="1437" d="M154 1126l71 308h721l-72 -308h-104l88 -264h6l105 146q32 44 32 73q0 8 -3 14q-10 31 -70 31h-13l72 308h643l-71 -308h-17q-19 0 -46 -19.5t-44 -41.5l-451 -543l-38 -170q-3 -16 6.5 -35.5t23.5 -19.5h68l-68 -297h-790l67 297h68q15 0 35.5 20t23.5 35l43 189 l-217 544q-5 12 -21 26.5t-28 14.5h-20z" />
<glyph unicode="Z" horiz-adv-x="1247" d="M-106 0l86 369l743 725v8h-178l-78 -148h-322l111 480h1184l-88 -379l-746 -725v-8h191l88 176h338l-115 -498h-1214z" />
<glyph unicode="[" horiz-adv-x="626" d="M-121 -100l373 1618h588l-72 -308h-147l-234 -1013h148l-68 -297h-588z" />
<glyph unicode="\" horiz-adv-x="780" d="M209 1518h307l141 -1618h-307z" />
<glyph unicode="]" horiz-adv-x="626" d="M-131 -100l68 297h147l233 1013h-147l72 308h587l-372 -1618h-588z" />
<glyph unicode="^" horiz-adv-x="835" d="M106 922l46 192l286 320h359l157 -320l-45 -192h-250l-98 155h-6l-164 -155h-285z" />
<glyph unicode="_" horiz-adv-x="825" d="M-203 -332l64 277h833l-63 -277h-834z" />
<glyph unicode="`" horiz-adv-x="819" d="M229 1311l29 123h404l55 -299h-291z" />
<glyph unicode="a" horiz-adv-x="1220" d="M-37 254q0 83 25.5 149t68 108t102.5 69.5t125 39t140 11.5q139 0 219 -25l12 56q3 12 3 23q0 28 -18 45q-26 24 -95 24q-116 0 -195 -72h-231l82 352q109 35 222 53.5t275 18.5q294 0 418 -102q88 -73 88 -202q0 -52 -14 -112l-80 -344q-3 -13 7.5 -31t21.5 -18h37 l-58 -250q-127 -67 -287 -67q-200 0 -251 139q-138 -135 -320 -135q-131 0 -214 73t-83 197zM465 319q0 -55 57 -55q22 0 41 8l37 152q-24 12 -51 12q-38 0 -61 -34.5t-23 -82.5z" />
<glyph unicode="b" horiz-adv-x="1269" d="M-82 0l248 1077q3 14 -7 31.5t-20 17.5h-55l72 308h540q32 0 50 -29q11 -18 12 -43q0 -14 -4 -29l-86 -375q62 66 141.5 107t155.5 41q135 0 221 -92t86 -258q0 -211 -49 -361t-123 -241q-143 -177 -371 -177q-205 0 -311 156q-102 -133 -187 -133h-313zM520 317 q23 -10 47 -10q73 0 121.5 83.5t48.5 201.5q0 66 -28.5 95t-94.5 38z" />
<glyph unicode="c" horiz-adv-x="1056" d="M6 416q0 311 190.5 500.5t516.5 189.5q289 0 436 -70l-82 -354h-272q-7 46 -26 69t-62 23q-52 0 -94 -63.5t-61.5 -146t-19.5 -158.5q0 -119 93 -119q43 0 74 19.5t61 62.5h252l-74 -314q-64 -32 -164.5 -55t-202.5 -23q-294 0 -429.5 117t-135.5 322z" />
<glyph unicode="d" horiz-adv-x="1327" d="M2 381q0 172 57.5 329.5t165.5 260.5q141 135 332 135q168 0 258 -107l31 127h-86l71 308h533q33 0 50 -29q11 -18 11 -42q0 -14 -4 -30l-227 -987q-3 -14 7 -31.5t22 -17.5h51l-57 -250q-109 -67 -306 -67q-116 0 -184.5 42t-83.5 119q-137 -164 -319 -164 q-144 0 -233 105.5t-89 298.5zM537 420q0 -61 27 -89.5t89 -37.5l101 432q-24 4 -37 4q-81 0 -130.5 -86.5t-49.5 -222.5z" />
<glyph unicode="e" horiz-adv-x="1153" d="M6 403q0 321 196 512t517 191q225 0 343 -94.5t118 -247.5q0 -91 -33 -158t-89.5 -108t-144 -64t-183.5 -30q-61 -4 -135 -4q-42 0 -87 1q4 -63 29 -88.5t79 -25.5q121 0 199 82h264l-71 -306q-74 -36 -189 -61t-231 -25q-132 0 -234 23t-167 62t-106.5 94.5t-58 115.5 t-16.5 131zM524 606q189 23 189 133q0 72 -58 72q-45 0 -79 -57t-52 -148z" />
<glyph unicode="f" horiz-adv-x="768" d="M-186 -332l63 277q51 11 81 44.5t48 110.5l148 668h-99l72 317h96l6 29q42 193 161.5 272.5t338.5 79.5q126 0 236 -32l-64 -269h-35q-61 0 -83 -14t-31 -57l-2 -9h120l-71 -317h-119l-145 -672q-36 -167 -137.5 -277.5t-227.5 -150.5h-356z" />
<glyph unicode="g" horiz-adv-x="1157" d="M-141 -141q0 156 247 231q-44 19 -71 56.5t-27 82.5q0 86 47.5 141t132.5 95q-116 74 -116 219q0 192 143.5 307t419.5 115q100 0 203 -21h422l-72 -317h-12q-9 0 -26 -11.5t-26 -23.5q-18 -158 -157 -253t-383 -95q-144 0 -242 23q3 -33 17.5 -50.5t48.5 -17.5h335 q177 0 259.5 -64t82.5 -194q0 -225 -163 -342t-512 -117q-207 0 -329 26.5t-172 76.5t-50 133zM293 -33q-2 -14 -2 -25q0 -35 21 -50q27 -19 122 -19q193 0 193 61q0 17 -11 25t-43 8h-280zM539 670q0 -74 49 -74q39 0 67.5 62t28.5 149q0 59 -51 59q-38 0 -66 -56.5 t-28 -139.5z" />
<glyph unicode="h" horiz-adv-x="1359" d="M-8 49l235 1028q3 14 -6.5 31.5t-19.5 17.5h-56l72 308h541q33 0 50 -29q11 -18 11 -42q0 -14 -4 -30l-96 -420q198 193 397 193q129 0 194 -77q43 -51 43 -131q0 -42 -12 -93l-106 -459q-3 -14 7 -31.5t22 -17.5h51l-58 -250q-109 -67 -319 -67q-156 0 -220 68 q-41 44 -41 124q0 45 13 100l80 351q3 15 3 27q0 23 -12 37q-19 20 -87 24h-2l-164 -711h-485q-16 0 -25 17q-7 13 -7 24q0 4 1 8z" />
<glyph unicode="i" horiz-adv-x="733" d="M43 272l102 447q3 14 -5 31.5t-21 17.5h-64l60 264q93 33 173 49.5t193 16.5q127 0 187 -74q41 -51 41 -123q0 -34 -9 -72l-112 -483q-3 -14 6.5 -31.5t21.5 -17.5h64l-57 -250q-109 -67 -332 -67q-156 0 -220 68q-41 44 -41 124q0 44 13 100zM268 1303q0 105 72 164 t180 59q101 0 160 -51t59 -132q0 -108 -71 -166.5t-179 -58.5q-102 0 -161.5 51t-59.5 134z" />
<glyph unicode="j" horiz-adv-x="673" d="M-225 -317l61 268h60q42 0 61.5 15t28.5 57l159 696q3 14 -5 31.5t-21 17.5h-64l60 264q93 33 173 49.5t193 16.5q127 0 187 -74q41 -51 41 -123q0 -34 -9 -72l-192 -827q-44 -192 -157 -272t-308 -80q-143 0 -268 33zM268 1303q0 105 72 164t180 59q101 0 160 -51 t59 -132q0 -108 -71 -166.5t-179 -58.5q-102 0 -161.5 51t-59.5 134z" />
<glyph unicode="k" horiz-adv-x="1286" d="M-8 49l235 1028q3 14 -6.5 31.5t-19.5 17.5h-56l72 308h541q33 0 50 -29q11 -18 11 -42q0 -14 -4 -30l-147 -635q94 69 157.5 178.5t87.5 208.5h447l-57 -256q-82 -122 -232 -256l88 -227q7 -15 24 -32t29 -17h48l-58 -250q-96 -67 -239 -67q-73 0 -117.5 10t-76.5 40 t-50 65.5t-45 107.5l-53 141l-37 -16l-76 -328h-485q-16 0 -25 17q-7 13 -7 24q0 4 1 8z" />
<glyph unicode="l" horiz-adv-x="737" d="M49 272l184 805q3 14 -6.5 31.5t-19.5 17.5h-62l72 308h547q33 0 50 -29q11 -18 11 -42q0 -14 -4 -30l-227 -987q-3 -14 7 -31.5t22 -17.5h65l-57 -250q-109 -67 -334 -67q-156 0 -220 68q-41 44 -41 124q0 44 13 100z" />
<glyph unicode="m" horiz-adv-x="1974" d="M-8 49l153 670q3 14 -5 31.5t-21 17.5h-64l60 264q93 33 173 49.5t193 16.5q102 0 162.5 -50.5t65.5 -136.5q90 93 184 144t207 51q103 0 167.5 -51.5t67.5 -149.5q91 95 187 148t209 53q129 0 194 -77q43 -51 43 -131q0 -42 -12 -93l-107 -459q-3 -14 7 -31.5t22 -17.5 h51l-57 -250q-109 -67 -320 -67q-156 0 -220 68q-41 44 -40 123q0 45 13 101l81 355q4 18 4 32q0 21 -8 33q-14 20 -77 23l-166 -715h-486q-16 0 -24.5 17t-5.5 32l133 578q4 18 4 31q0 22 -10 34q-16 20 -76 23l-166 -715h-485q-16 0 -25 17q-7 13 -7 24q0 4 1 8z" />
<glyph unicode="n" horiz-adv-x="1359" d="M-8 49l153 670q3 14 -5 31.5t-21 17.5h-64l60 264q93 33 173 49.5t193 16.5q105 0 165.5 -52.5t62.5 -142.5q203 203 407 203q129 0 194 -77q43 -51 43 -131q0 -42 -12 -93l-106 -459q-3 -14 7 -31.5t22 -17.5h51l-58 -250q-109 -67 -319 -67q-156 0 -220 68 q-41 44 -41 124q0 45 13 100l80 351q3 15 3 27q0 23 -12 37q-19 20 -87 24h-2l-164 -711h-485q-16 0 -25 17q-7 13 -7 24q0 4 1 8z" />
<glyph unicode="o" horiz-adv-x="1259" d="M8 465q0 123 45.5 237t128 204.5t210.5 145t282 54.5q274 0 427.5 -130.5t153.5 -357.5q0 -123 -45 -236.5t-127 -203.5t-209.5 -144t-281.5 -54q-276 0 -430 128t-154 357zM524 387q0 -98 66 -98q43 0 77.5 64.5t51 150t16.5 164.5q0 98 -67 98q-43 0 -77.5 -64.5 t-50.5 -149.5t-16 -165z" />
<glyph unicode="p" horiz-adv-x="1331" d="M-186 -332l63 277h41q13 0 34.5 17.5t24.5 31.5l168 725q3 14 -5 31.5t-21 17.5h-64l60 264q93 33 173 49.5t193 16.5q99 0 159.5 -47t68.5 -129q144 184 323 184q129 0 215 -92.5t86 -257.5q0 -383 -190 -580q-139 -145 -350 -145q-170 0 -261 75l-36 -161h69l-63 -277 h-688zM582 319q19 -8 49 -8q68 0 118 83.5t50 203.5q0 60 -28.5 89t-94.5 38z" />
<glyph unicode="q" horiz-adv-x="1282" d="M6 373q0 192 50.5 330t148.5 245q145 158 366 158q184 0 275 -150q41 62 89 95.5t87 33.5h346l-252 -1091q-3 -13 11 -31t28 -18h41l-63 -277h-689l64 277h70l43 186q-125 -102 -275 -102q-156 0 -248 93t-92 251zM537 442q0 -71 27.5 -101.5t94.5 -39.5l99 430 q-18 6 -41 6q-69 0 -124.5 -88.5t-55.5 -206.5z" />
<glyph unicode="r" horiz-adv-x="954" d="M-8 49l153 670q3 14 -5 31.5t-21 17.5h-64l60 264q93 33 173 49.5t193 16.5q90 0 145.5 -51t67.5 -140q49 93 120.5 139t180.5 46q36 0 64 -7l-92 -403h-62q-139 0 -256 -76l-141 -606h-485q-16 0 -25 17q-7 13 -7 24q0 4 1 8z" />
<glyph unicode="s" horiz-adv-x="1019" d="M-74 74l70 295h248q25 -48 60 -70.5t97 -22.5q37 0 67 13t30 43q0 21 -25 33t-108 26q-154 26 -234 93t-80 196q0 111 41.5 194.5t116 132.5t170 73t211.5 24q278 0 479 -74l-68 -293h-256q-50 84 -139 84q-92 0 -92 -47q0 -20 23 -33t92 -26q90 -18 149 -37t107.5 -50.5 t71 -78.5t22.5 -113q0 -220 -140.5 -337t-406.5 -117q-318 0 -506 92z" />
<glyph unicode="t" horiz-adv-x="786" d="M53 365l92 403h-90l72 317h92l66 277h528l-65 -277h141l-72 -317h-143l-82 -358q-4 -20 -4 -37q0 -29 13 -47q21 -28 83 -29h35l-66 -289q-126 -33 -241 -33q-220 -1 -314 93q-62 62 -61 172q0 56 16 125z" />
<glyph unicode="u" horiz-adv-x="1351" d="M45 281l100 438q3 14 -5 31.5t-21 17.5h-64l60 264q93 33 173 49.5t193 16.5q127 0 187 -74q41 -51 41 -123q0 -34 -9 -72l-88 -378q-4 -18 -4 -32q0 -24 10 -39q16 -24 82 -30l168 735h488q16 0 24 -17q6 -13 7 -24q0 -4 -1 -8l-159 -690q-3 -14 6.5 -31.5t21.5 -17.5 h52l-58 -250q-109 -67 -319 -67q-132 0 -198 48q-63 46 -62 145v9q-97 -102 -188 -152t-203 -50q-136 0 -202 76q-44 50 -44 133q0 42 12 92z" />
<glyph unicode="v" horiz-adv-x="1206" d="M55 768l60 264q139 66 301 66q108 0 168 -46t67 -163l25 -395h6q145 251 180 591h447l-64 -276q-53 -124 -95.5 -210t-107 -191t-150 -205t-198.5 -203h-461l-88 727q-2 13 -11 27t-19 14h-60z" />
<glyph unicode="w" horiz-adv-x="1789" d="M55 768l60 264q69 33 135.5 49.5t157.5 16.5q114 0 174.5 -44.5t64.5 -164.5l10 -352h7l206 548h379l37 -548h6q118 226 162 548h438l-63 -276q-35 -95 -72 -177t-95.5 -188t-142 -219t-188.5 -225h-391l-31 463h-6l-211 -463h-481l-66 727q-2 13 -11 27t-19 14h-60z" />
<glyph unicode="x" horiz-adv-x="1144" d="M-90 0l67 297q69 9 140 61t159 158l-120 219q-8 13 -22 23t-25 10h-54l60 264q42 22 64.5 32.5t72.5 22t106 11.5q120 0 181.5 -37t99.5 -146l43 -124q122 211 221 294h348l-71 -317q-75 -18 -146.5 -73.5t-154.5 -151.5l125 -211q22 -35 45 -35h51l-58 -250 q-39 -29 -106 -48t-143 -19q-123 0 -186 42t-105 144l-37 88q-83 -137 -213 -254h-342z" />
<glyph unicode="y" horiz-adv-x="1331" d="M-59 -283l71 314h301q23 -62 136 -62q87 0 134 42t68 132l17 70q-180 -143 -375 -143q-131 0 -197 76q-46 53 -46 130q0 35 9 74l86 369q3 14 -5 31.5t-21 17.5h-64l60 264q93 33 173 49.5t193 16.5q127 0 187 -74q41 -51 41 -123q0 -34 -9 -72l-84 -358q-4 -17 -4 -31 q0 -24 11 -39q17 -24 82 -30l163 714h488q16 0 24 -17q7 -13 7 -24q0 -4 -1 -8l-223 -964q-23 -99 -73 -174t-135 -132.5t-215 -87.5t-302 -30q-352 0 -497 69z" />
<glyph unicode="z" horiz-adv-x="1105" d="M-86 0l78 338l536 420h-122l-70 -105h-275l99 432h1048l-80 -348l-553 -420h136l61 101h287l-96 -418h-1049z" />
<glyph unicode="{" horiz-adv-x="716" d="M29 578l69 307h27q110 0 135 100l59 258q31 139 124.5 207t263.5 68h221l-72 -308h-59q-15 0 -35 -19.5t-23 -35.5l-47 -205q-40 -179 -280 -217v-6q110 -30 151.5 -94t20.5 -152l-54 -229q-3 -16 8 -35.5t25 -19.5h60l-68 -297h-176q-169 0 -250 85t-45 238l53 230 q11 50 -7.5 87.5t-74.5 37.5h-26z" />
<glyph unicode="|" horiz-adv-x="366" d="M72 -100v1618h305v-1618h-305z" />
<glyph unicode="}" horiz-adv-x="716" d="M-129 -100l68 297h59q14 0 34 19.5t23 35.5l56 233q39 177 280 215v7q-216 58 -172 247l45 201q3 16 -8 35.5t-25 19.5h-59l72 308h176q169 0 250 -85.5t45 -238.5l-49 -213q-12 -49 6.5 -87t75.5 -38h26l-69 -307h-27q-110 0 -135 -100l-64 -275q-31 -139 -124 -206.5 t-263 -67.5h-221z" />
<glyph unicode="~" horiz-adv-x="757" d="M-12 414l47 207q35 74 95.5 120.5t131.5 46.5q56 0 144 -21.5t110 -21.5q44 0 72 50h217l-51 -217q-34 -72 -95 -115t-133 -43q-56 0 -142 21.5t-108 21.5q-45 0 -69 -49h-219z" />
<glyph unicode="&#xa1;" horiz-adv-x="557" d="M-135 -123l72 307l299 664h249l-24 -664l-72 -307h-524zM180 1100q0 96 70 161.5t166 65.5q94 0 158.5 -60.5t64.5 -140.5q0 -100 -70 -166.5t-166 -66.5t-159.5 60.5t-63.5 146.5z" />
<glyph unicode="&#xa2;" horiz-adv-x="1073" d="M6 416q0 272 148 454t409 224l37 153h336l-37 -151q154 -15 250 -60l-82 -354h-272q-7 46 -26 69t-62 23q-52 0 -94 -63.5t-61.5 -146t-19.5 -158.5q0 -119 93 -119q43 0 74 19.5t61 62.5h252l-74 -314q-121 -60 -297 -75l-43 -189h-336l49 217q-305 86 -305 408z" />
<glyph unicode="&#xa3;" horiz-adv-x="1165" d="M-106 0l67 297q101 35 160 95t69 169h-159l65 285h78q-4 33 -4 100q0 240 169.5 376t508.5 136q297 0 477 -80l-96 -409h-268q-27 90 -119 90q-49 0 -82.5 -25t-54.5 -84q-12 -35 -25 -104h225l-65 -285h-213q-22 -88 -60 -168q91 -18 193 -18l49 98h326l-109 -473h-88 q-423 0 -627 86q-85 -55 -190 -86h-227z" />
<glyph unicode="&#xa5;" horiz-adv-x="1366" d="M47 379l45 196h316l14 62h-316l46 197h174l-103 251q-7 15 -20.5 28t-26.5 13h-22l71 308h686l-71 -308h-84l71 -231h7l88 121q35 46 23 78t-58 32h-6l71 308h607l-72 -308h-17q-40 0 -77 -47l-213 -245h168l-45 -197h-316l-14 -62h315l-45 -196h-315l-6 -27 q-3 -16 6.5 -35.5t23.5 -19.5h68l-68 -297h-790l67 297h68q15 0 35.5 20t23.5 35l6 27h-315z" />
<glyph unicode="&#xa6;" horiz-adv-x="366" d="M72 -100v731h305v-731h-305zM72 784v734h305v-734h-305z" />
<glyph unicode="&#xa7;" horiz-adv-x="1220" d="M-23 -180l66 291h285q16 -49 47 -73t92 -24q38 0 62 16.5t24 41.5q0 24 -24.5 43t-110.5 47q-211 70 -303 146t-92 204q0 247 258 346q-39 59 -39 154q0 198 146 322t413 124q152 0 250.5 -23.5t185.5 -64.5l-61 -274h-283q-19 40 -48 59t-85 19q-36 0 -56 -15t-20 -39 q0 -18 22 -30.5t95 -38.5q77 -26 127 -45t104 -44t87 -49.5t61 -56t40.5 -69t12.5 -82.5q0 -151 -69.5 -237.5t-196.5 -127.5q41 -68 41 -150q0 -101 -35.5 -186t-102 -148.5t-171 -99t-234.5 -35.5q-120 0 -221 17t-153.5 35t-113.5 47zM412 686q0 -34 38.5 -60.5 t153.5 -64.5q136 -47 209 -88q14 21 14 45q0 38 -41 69t-159 70q-138 46 -199 80q-16 -21 -16 -51z" />
<glyph unicode="&#xa8;" horiz-adv-x="819" d="M160 1298q0 97 61 151t158 54q91 0 143.5 -48t52.5 -126q0 -101 -60.5 -156t-156.5 -55q-93 0 -145.5 48.5t-52.5 131.5zM604 1298q0 97 61 151t158 54q91 0 144 -48t53 -126q0 -101 -60.5 -156t-156.5 -55q-93 0 -146 49t-53 131z" />
<glyph unicode="&#xa9;" horiz-adv-x="1564" d="M88 717q0 172 60 313t162 231.5t234.5 139.5t280.5 49t280.5 -49t235 -139.5t162.5 -231.5t60 -313t-60 -313t-162.5 -231.5t-235 -139.5t-280.5 -49t-280.5 49t-234.5 139.5t-162 231.5t-60 313zM184 717q0 -153 50 -278t137 -206.5t203.5 -125.5t250.5 -44t250.5 44 t203.5 125.5t137 206.5t50 278t-50 278t-137 206t-203.5 125t-250.5 44t-250.5 -44t-203.5 -125t-137 -206t-50 -278zM389 700q0 210 116 323.5t318 113.5q46 0 135 -13h220v-311h-217l-33 94q-16 4 -31 4q-65 0 -97 -42t-32 -156q0 -107 27.5 -153t87.5 -46q66 0 116 70 h179v-219q-60 -34 -152.5 -57t-181.5 -23q-455 0 -455 415z" />
<glyph unicode="&#xaa;" horiz-adv-x="1042" d="M76 748q0 69 21 123.5t56.5 89t85 57t104 32t116.5 9.5q115 0 180 -19l12 45q8 36 -13.5 56t-78.5 20q-99 0 -162 -59h-192l67 293q182 59 414 59q244 0 345.5 -83.5t62.5 -260.5l-66 -287q-3 -10 6 -25.5t17 -15.5h30l-47 -207q-103 -57 -237 -57q-165 0 -209 117 q-116 -113 -266 -113q-108 0 -177 61.5t-69 164.5zM492 801q0 -45 49 -45q14 0 32 6l31 127q-23 10 -43 10q-31 0 -50 -29t-19 -69z" />
<glyph unicode="&#xab;" horiz-adv-x="1052" d="M8 477l37 158l346 348h271l-25 -104l-234 -344v-7l74 -338l-24 -108h-230zM483 471l37 158l346 354h271l-25 -104l-233 -351v-6l73 -332l-24 -108h-230z" />
<glyph unicode="&#xad;" horiz-adv-x="604" d="M0 426l84 367h555l-84 -367h-555z" />
<glyph unicode="&#xae;" horiz-adv-x="800" d="M162 1083q0 168 107.5 267.5t262.5 99.5q99 0 182.5 -42t136 -127.5t52.5 -197.5q0 -167 -109 -266.5t-262 -99.5q-154 0 -262 99.5t-108 266.5zM242 1083q0 -141 81.5 -220t208.5 -79t209 79t82 220t-82 220t-209 79t-208.5 -79t-81.5 -220zM346 909v72h16q5 0 10 5 t5 11v183q0 4 -5 9t-10 5h-16v74h182q170 0 170 -103q0 -33 -15 -51t-50 -27v-2q25 -4 38.5 -19t22.5 -46l8 -27q3 -12 13 -12h10v-72h-147l-13 99q-4 23 -13 29.5t-32 6.5h-8v-63h35v-72h-201zM508 1116h16q41 0 41 39q0 35 -41 35h-16v-74z" />
<glyph unicode="&#xaf;" horiz-adv-x="819" d="M252 1159l63 275h607l-64 -275h-606z" />
<glyph unicode="&#xb0;" horiz-adv-x="704" d="M160 1116q0 146 103.5 238t242.5 92q133 0 225 -82.5t92 -204.5q0 -154 -103 -246t-243 -92q-134 0 -225.5 83.5t-91.5 211.5zM348 1122q0 -62 35.5 -102.5t97.5 -40.5q67 0 111.5 46.5t44.5 123.5q0 64 -36.5 101.5t-100.5 37.5q-66 0 -109 -45t-43 -121z" />
<glyph unicode="&#xb2;" horiz-adv-x="743" d="M27 606l34 148q27 109 92 174.5t169 113.5q99 46 129 66t30 49q0 43 -53 43q-59 0 -96 -53h-174l59 256q123 47 299 47q171 0 262.5 -62t91.5 -167q0 -107 -57.5 -171.5t-161.5 -109.5q-40 -17 -86.5 -34t-69 -25t-41.5 -19.5t-26 -25.5h125l25 43h210l-65 -273h-696z " />
<glyph unicode="&#xb3;" horiz-adv-x="743" d="M39 653l51 211h178q9 -19 16.5 -29.5t25.5 -19t46 -8.5t50 18.5t22 42.5q0 47 -61 47h-93l48 191h88q36 0 55.5 17.5t19.5 43.5q0 19 -15 31t-44 12q-51 0 -90 -45h-168l59 248q141 37 285 37q170 0 253 -53.5t83 -151.5q0 -90 -52.5 -144t-156.5 -79v-4q78 -13 117 -54 t39 -104q0 -129 -108 -199.5t-298 -70.5q-238 0 -350 63z" />
<glyph unicode="&#xb4;" horiz-adv-x="819" d="M381 1135l100 299h469l-28 -123l-234 -176h-307z" />
<glyph unicode="&#xb6;" horiz-adv-x="1175" d="M129 958q0 128 44 221.5t125.5 148t185 80.5t233.5 26h651l-72 -308h-59q-15 0 -34.5 -19.5t-22.5 -35.5l-291 -1257h-254l307 1329h-98l-307 -1329h-254l182 794q-158 25 -247 114.5t-89 235.5z" />
<glyph unicode="&#xb7;" horiz-adv-x="479" d="M25 584q0 101 69.5 167t165.5 66t159.5 -60.5t63.5 -146.5q0 -97 -69.5 -162t-165.5 -65q-94 0 -158.5 60.5t-64.5 140.5z" />
<glyph unicode="&#xb8;" horiz-adv-x="819" d="M27 -324l30 138h115q11 -25 39 -25q15 0 25 8t10 21q0 28 -39 28h-47l35 154h170l-13 -51q74 -7 111 -41.5t37 -87.5q0 -86 -69.5 -132t-190.5 -46q-143 0 -213 34z" />
<glyph unicode="&#xb9;" horiz-adv-x="638" d="M45 606l47 197h68q8 0 23 12t16 19l75 315l-71 -41h-60l56 225l245 101h295l-147 -600q-2 -8 5 -19.5t15 -11.5h74l-49 -197h-592z" />
<glyph unicode="&#xba;" horiz-adv-x="1044" d="M109 922q0 102 37.5 196.5t106 169.5t175 120.5t234.5 45.5q228 0 355.5 -108t127.5 -297q0 -102 -37.5 -196.5t-105.5 -169.5t-174 -120t-234 -45q-229 0 -357 107t-128 297zM537 858q0 -82 55 -82q36 0 64.5 54t42.5 124.5t14 135.5q0 81 -56 81q-37 0 -65.5 -53.5 t-41.5 -123.5t-13 -136z" />
<glyph unicode="&#xbb;" horiz-adv-x="1052" d="M-84 82l25 104l233 351v6l-74 331l25 109h229l215 -389l-37 -158l-346 -354h-270zM391 82l25 104l233 344v7l-74 337l25 109h229l215 -395l-36 -158l-346 -348h-271z" />
<glyph unicode="&#xbc;" horiz-adv-x="1781" d="M45 606l47 197h68q8 0 23 12t16 19l75 315l-71 -41h-60l56 225l245 101h295l-147 -600q-2 -8 5 -19.5t15 -11.5h74l-49 -197h-592zM154 -70l1288 1563h270l-1288 -1563h-270zM911 246l52 209l428 372h368l-96 -397h78l-43 -184h-80l-4 -19q-2 -8 5.5 -19t14.5 -11h52 l-48 -197h-546l47 197h57q9 0 23.5 11t17.5 19l4 19h-330zM1176 430h133l34 141h-6l-161 -137v-4z" />
<glyph unicode="&#xbd;" horiz-adv-x="1871" d="M45 606l47 197h68q8 0 23 12t16 19l75 315l-71 -41h-60l56 225l245 101h295l-147 -600q-2 -8 5 -19.5t15 -11.5h74l-49 -197h-592zM154 -70l1288 1563h270l-1288 -1563h-270zM1014 0l35 147q27 109 92 175t168 114q99 46 129 66t30 49q0 43 -53 43q-59 0 -96 -53h-174 l59 256q123 47 299 47q171 0 263 -62.5t92 -167.5q0 -56 -16.5 -101t-48.5 -78t-68.5 -56t-86.5 -45q-40 -17 -86.5 -34.5t-69 -25.5t-41.5 -19.5t-26 -25.5h125l25 43h211l-66 -272h-696z" />
<glyph unicode="&#xbe;" horiz-adv-x="1804" d="M39 653l51 211h178q9 -19 16.5 -29.5t25.5 -19t46 -8.5t50 18.5t22 42.5q0 47 -61 47h-93l48 191h88q36 0 55.5 17.5t19.5 43.5q0 19 -15 31t-44 12q-51 0 -90 -45h-168l59 248q141 37 285 37q170 0 253 -53.5t83 -151.5q0 -90 -52.5 -144t-156.5 -79v-4q78 -13 117 -54 t39 -104q0 -129 -108 -199.5t-298 -70.5q-238 0 -350 63zM186 -70l1289 1563h270l-1288 -1563h-271zM934 246l51 209l428 372h369l-96 -397h77l-43 -184h-80l-4 -19q-2 -8 6 -19t15 -11h51l-47 -197h-547l47 197h58q9 0 23.5 11t17.5 19l4 19h-330zM1198 430h133l35 141h-6 l-162 -137v-4z" />
<glyph unicode="&#xbf;" horiz-adv-x="1011" d="M-55 184q0 80 22 145.5t53.5 109t86 84.5t99.5 65.5t113 58.5q6 3 9 4q37 19 59.5 31t50 31t43 37t28 43.5t15.5 54.5h320q12 -230 -178 -383q-16 -13 -59.5 -44.5t-64.5 -49.5t-41 -47.5t-20 -59.5q0 -59 66 -59q65 0 108 92h281l-84 -369q-174 -75 -426 -75 q-242 0 -361.5 91.5t-119.5 239.5zM498 1100q0 97 69.5 162t165.5 65q94 0 158.5 -60.5t64.5 -140.5q0 -101 -69.5 -167t-165.5 -66t-159.5 60.5t-63.5 146.5z" />
<glyph unicode="&#xc0;" d="M-106 0l67 297h14q24 0 51 17.5t42 43.5l415 715q8 12 0 32.5t-24 20.5h-47l71 308h860l82 -1096q1 -13 17.5 -27t27.5 -14h25l-68 -297h-790l68 297h147l-4 139h-338q-34 -72 -21.5 -105.5t78.5 -33.5h37l-67 -297h-643zM633 1659l29 123h403l55 -299h-291zM637 674h203 l-11 340h-6z" />
<glyph unicode="&#xc1;" d="M-106 0l67 297h14q24 0 51 17.5t42 43.5l415 715q8 12 0 32.5t-24 20.5h-47l71 308h860l82 -1096q1 -13 17.5 -27t27.5 -14h25l-68 -297h-790l68 297h147l-4 139h-338q-34 -72 -21.5 -105.5t78.5 -33.5h37l-67 -297h-643zM637 674h203l-11 340h-6zM784 1483l101 299h469 l-29 -123l-233 -176h-308z" />
<glyph unicode="&#xc2;" d="M-106 0l67 297h14q24 0 51 17.5t42 43.5l415 715q8 12 0 32.5t-24 20.5h-47l71 308h860l82 -1096q1 -13 17.5 -27t27.5 -14h25l-68 -297h-790l68 297h147l-4 139h-338q-34 -72 -21.5 -105.5t78.5 -33.5h37l-67 -297h-643zM621 1483l20 86l186 213h359l119 -213l-21 -86 h-215l-94 69l-121 -69h-233zM637 674h203l-11 340h-6z" />
<glyph unicode="&#xc3;" d="M-106 0l67 297h14q24 0 51 17.5t42 43.5l415 715q8 12 0 32.5t-24 20.5h-47l71 308h860l82 -1096q1 -13 17.5 -27t27.5 -14h25l-68 -297h-790l68 297h147l-4 139h-338q-34 -72 -21.5 -105.5t78.5 -33.5h37l-67 -297h-643zM608 1483l43 186q33 57 93.5 92t134.5 35 q43 0 115 -16.5t96 -16.5q53 0 75 39h205l-43 -186q-33 -57 -93 -92t-134 -35q-43 0 -116 16.5t-97 16.5q-52 0 -74 -39h-205zM637 674h203l-11 340h-6z" />
<glyph unicode="&#xc4;" d="M-106 0l67 297h14q24 0 51 17.5t42 43.5l415 715q8 12 0 32.5t-24 20.5h-47l71 308h860l82 -1096q1 -13 17.5 -27t27.5 -14h25l-68 -297h-790l68 297h147l-4 139h-338q-34 -72 -21.5 -105.5t78.5 -33.5h37l-67 -297h-643zM563 1647q0 97 61 150.5t158 53.5q91 0 144 -48 t53 -126q0 -101 -60.5 -156t-156.5 -55q-93 0 -146 49t-53 132zM637 674h203l-11 340h-6zM1008 1647q0 97 61 150.5t158 53.5q91 0 143.5 -48t52.5 -126q0 -101 -60.5 -156t-156.5 -55q-93 0 -145.5 49t-52.5 132z" />
<glyph unicode="&#xc5;" d="M-106 0l67 297h14q24 0 51 17.5t42 43.5l415 715q8 12 0 32.5t-24 20.5h-47l71 308h860l82 -1096q1 -13 17.5 -27t27.5 -14h25l-68 -297h-790l68 297h147l-4 139h-338q-34 -72 -21.5 -105.5t78.5 -33.5h37l-67 -297h-643zM637 674h203l-11 340h-6zM774 1683 q0 107 70.5 167.5t167.5 60.5q92 0 154.5 -56t62.5 -145q0 -108 -69 -167.5t-167 -59.5q-93 0 -156 55.5t-63 144.5zM922 1688q0 -34 20 -55t55 -21q38 0 62 25t24 69q0 33 -21 54.5t-56 21.5q-37 0 -60.5 -25t-23.5 -69z" />
<glyph unicode="&#xc6;" horiz-adv-x="2080" d="M-106 0l67 297h33q50 0 98 61l518 715q10 13 6 33t-16 20h-61l71 308h1633l-115 -494h-313l-19 162h-209l-49 -209h301l-76 -322h-299l-57 -249h219l90 198h338l-121 -520h-1261l67 297h97l32 139h-319q-34 -66 -19.5 -102.5t74.5 -36.5h12l-67 -297h-655zM709 674h215 l98 428h-14z" />
<glyph unicode="&#xc7;" horiz-adv-x="1316" d="M45 528q0 260 105.5 473.5t290.5 335t411 121.5q157 0 274 -24h379l-125 -539h-346l-20 188q-42 7 -68 7q-86 0 -159 -70.5t-117.5 -199.5t-44.5 -288q0 -92 36 -138t117 -46q66 0 116 31t105 94h283l-86 -379q-190 -119 -506 -119q-37 0 -53 2l-6 -28q74 -7 110.5 -41.5 t36.5 -87.5q0 -86 -69.5 -132t-190.5 -46q-143 0 -213 34l31 138h115q11 -25 38 -25q15 0 25 8t10 21q0 28 -39 28h-47l33 152q-211 45 -318.5 182.5t-107.5 347.5z" />
<glyph unicode="&#xc8;" horiz-adv-x="1310" d="M-106 0l67 297h59q15 0 36 20t24 35l166 719q3 16 -8 35.5t-25 19.5h-59l71 308h1248l-115 -494h-314l-18 162h-209l-49 -209h301l-76 -322h-299l-57 -249h219l90 198h338l-121 -520h-1269zM555 1659l29 123h403l55 -299h-290z" />
<glyph unicode="&#xc9;" horiz-adv-x="1310" d="M-106 0l67 297h59q15 0 36 20t24 35l166 719q3 16 -8 35.5t-25 19.5h-59l71 308h1248l-115 -494h-314l-18 162h-209l-49 -209h301l-76 -322h-299l-57 -249h219l90 198h338l-121 -520h-1269zM707 1483l100 299h469l-29 -123l-233 -176h-307z" />
<glyph unicode="&#xca;" horiz-adv-x="1310" d="M-106 0l67 297h59q15 0 36 20t24 35l166 719q3 16 -8 35.5t-25 19.5h-59l71 308h1248l-115 -494h-314l-18 162h-209l-49 -209h301l-76 -322h-299l-57 -249h219l90 198h338l-121 -520h-1269zM543 1483l20 86l187 213h358l119 -213l-21 -86h-215l-94 69l-121 -69h-233z" />
<glyph unicode="&#xcb;" horiz-adv-x="1310" d="M-106 0l67 297h59q15 0 36 20t24 35l166 719q3 16 -8 35.5t-25 19.5h-59l71 308h1248l-115 -494h-314l-18 162h-209l-49 -209h301l-76 -322h-299l-57 -249h219l90 198h338l-121 -520h-1269zM485 1647q0 97 61.5 150.5t158.5 53.5q91 0 143.5 -48t52.5 -126 q0 -101 -60.5 -156t-156.5 -55q-93 0 -146 49t-53 132zM930 1647q0 97 61 150.5t158 53.5q91 0 144 -48t53 -126q0 -101 -61 -156t-157 -55q-93 0 -145.5 49t-52.5 132z" />
<glyph unicode="&#xcc;" horiz-adv-x="823" d="M-106 0l67 297h68q15 0 35.5 20t23.5 35l166 719q3 16 -8 35.5t-25 19.5h-67l71 308h791l-72 -308h-67q-15 0 -35 -19.5t-23 -35.5l-166 -719q-3 -16 7 -35.5t24 -19.5h68l-68 -297h-790zM311 1659l29 123h403l56 -299h-291z" />
<glyph unicode="&#xcd;" horiz-adv-x="823" d="M-106 0l67 297h68q15 0 35.5 20t23.5 35l166 719q3 16 -8 35.5t-25 19.5h-67l71 308h791l-72 -308h-67q-15 0 -35 -19.5t-23 -35.5l-166 -719q-3 -16 7 -35.5t24 -19.5h68l-68 -297h-790zM463 1483l100 299h469l-28 -123l-234 -176h-307z" />
<glyph unicode="&#xce;" horiz-adv-x="823" d="M-106 0l67 297h68q15 0 35.5 20t23.5 35l166 719q3 16 -8 35.5t-25 19.5h-67l71 308h791l-72 -308h-67q-15 0 -35 -19.5t-23 -35.5l-166 -719q-3 -16 7 -35.5t24 -19.5h68l-68 -297h-790zM299 1483l20 86l187 213h358l119 -213l-20 -86h-215l-95 69l-121 -69h-233z" />
<glyph unicode="&#xcf;" horiz-adv-x="823" d="M-106 0l67 297h68q15 0 35.5 20t23.5 35l166 719q3 16 -8 35.5t-25 19.5h-67l71 308h791l-72 -308h-67q-15 0 -35 -19.5t-23 -35.5l-166 -719q-3 -16 7 -35.5t24 -19.5h68l-68 -297h-790zM242 1647q0 97 61 150.5t158 53.5q91 0 143.5 -48t52.5 -126q0 -101 -60.5 -156 t-156.5 -55q-93 0 -145.5 49t-52.5 132zM686 1647q0 97 61 150.5t158 53.5q91 0 144 -48t53 -126q0 -101 -60.5 -156t-156.5 -55q-93 0 -146 49t-53 132z" />
<glyph unicode="&#xd0;" horiz-adv-x="1558" d="M-106 0l67 297h49q15 0 41 20t29 35l51 223h-104l65 289h105l49 207q3 15 -12.5 35t-30.5 20h-49l71 308h652q345 0 530.5 -155.5t185.5 -432.5q0 -137 -34.5 -259.5t-109.5 -230.5t-185.5 -186.5t-272.5 -124t-360 -45.5h-737zM635 311h33q161 0 257.5 151t96.5 398 q0 115 -47 179.5t-131 64.5h-27l-55 -240h143l-65 -289h-146z" />
<glyph unicode="&#xd1;" horiz-adv-x="1511" d="M-106 0l67 297h59q15 0 36 20t24 35l166 719q3 16 -8 35.5t-25 19.5h-59l71 308h643l179 -662h6l82 354h-107l72 308h604l-72 -308h-51q-15 0 -34.5 -19.5t-22.5 -35.5l-248 -1071h-477l-221 748h-7l-104 -451h113l-68 -297h-618zM631 1483l43 186q33 57 93 92t134 35 q43 0 115 -16.5t96 -16.5q54 0 76 39h205l-43 -186q-33 -57 -93.5 -92t-134.5 -35q-43 0 -116 16.5t-97 16.5q-51 0 -73 -39h-205z" />
<glyph unicode="&#xd2;" horiz-adv-x="1552" d="M45 565q0 194 73 362.5t194.5 283.5t283 181t336.5 66q299 0 479 -161t180 -435q0 -199 -69 -367t-187 -281t-275 -176t-333 -63q-322 0 -502 158t-180 432zM608 532q0 -206 146 -206q77 0 140 81.5t96.5 205t33.5 255.5q0 207 -143 207q-77 0 -141 -79.5t-98 -203.5 t-34 -260zM659 1669l29 123h404l55 -299h-291z" />
<glyph unicode="&#xd3;" horiz-adv-x="1552" d="M45 565q0 194 73 362.5t194.5 283.5t283 181t336.5 66q299 0 479 -161t180 -435q0 -199 -69 -367t-187 -281t-275 -176t-333 -63q-322 0 -502 158t-180 432zM608 532q0 -206 146 -206q77 0 140 81.5t96.5 205t33.5 255.5q0 207 -143 207q-77 0 -141 -79.5t-98 -203.5 t-34 -260zM811 1493l100 299h469l-28 -123l-234 -176h-307z" />
<glyph unicode="&#xd4;" horiz-adv-x="1552" d="M45 565q0 194 73 362.5t194.5 283.5t283 181t336.5 66q299 0 479 -161t180 -435q0 -199 -69 -367t-187 -281t-275 -176t-333 -63q-322 0 -502 158t-180 432zM608 532q0 -206 146 -206q77 0 140 81.5t96.5 205t33.5 255.5q0 207 -143 207q-77 0 -141 -79.5t-98 -203.5 t-34 -260zM647 1493l21 86l186 213h358l119 -213l-20 -86h-215l-95 70l-120 -70h-234z" />
<glyph unicode="&#xd5;" horiz-adv-x="1552" d="M45 565q0 194 73 362.5t194.5 283.5t283 181t336.5 66q299 0 479 -161t180 -435q0 -199 -69 -367t-187 -281t-275 -176t-333 -63q-322 0 -502 158t-180 432zM608 532q0 -206 146 -206q77 0 140 81.5t96.5 205t33.5 255.5q0 207 -143 207q-77 0 -141 -79.5t-98 -203.5 t-34 -260zM635 1493l43 186q33 57 93 92t134 35q43 0 115 -16t96 -16q55 0 76 38h205l-43 -186q-33 -57 -93.5 -92t-134.5 -35q-43 0 -116 16.5t-97 16.5q-51 0 -73 -39h-205z" />
<glyph unicode="&#xd6;" horiz-adv-x="1552" d="M45 565q0 194 73 362.5t194.5 283.5t283 181t336.5 66q299 0 479 -161t180 -435q0 -199 -69 -367t-187 -281t-275 -176t-333 -63q-322 0 -502 158t-180 432zM590 1657q0 97 61 151t158 54q91 0 144 -48t53 -126q0 -101 -61 -156t-157 -55q-93 0 -145.5 48.5t-52.5 131.5z M608 532q0 -206 146 -206q77 0 140 81.5t96.5 205t33.5 255.5q0 207 -143 207q-77 0 -141 -79.5t-98 -203.5t-34 -260zM1034 1657q0 97 61 151t158 54q91 0 144 -48t53 -126q0 -101 -60.5 -156t-156.5 -55q-93 0 -146 49t-53 131z" />
<glyph unicode="&#xd7;" horiz-adv-x="1099" d="M8 451l320 262l-213 258l297 254l219 -264l317 262l219 -262l-319 -263l215 -256l-295 -254l-221 263l-320 -263z" />
<glyph unicode="&#xd8;" horiz-adv-x="1552" d="M-31 -59l219 227q-143 149 -143 397q0 194 73 362.5t194.5 283.5t283 181t336.5 66q234 0 401 -104l117 123h227l-219 -228q133 -155 133 -387q0 -199 -69 -367t-187 -281t-275 -176t-333 -63q-241 0 -408 93l-122 -127h-228zM600 594l408 424q-37 76 -123 76 q-74 0 -137.5 -71t-101.5 -184.5t-46 -244.5zM623 383q39 -76 127 -76q74 0 136.5 73t99.5 186t46 241z" />
<glyph unicode="&#xd9;" horiz-adv-x="1501" d="M94.5 399.5q-1.5 76.5 20.5 163.5l118 508q3 16 -7.5 35.5t-24.5 19.5h-47l71 308h787l-72 -308h-129l-147 -634q-37 -162 124 -162q72 0 109 35.5t53 107.5l152 653h-129l71 308h650l-72 -308h-47q-15 0 -34.5 -19.5t-22.5 -35.5l-142 -606q-60 -253 -224.5 -367 t-432.5 -114q-131 0 -235 18.5t-176 54t-121 86.5t-70 115.5t-22.5 141zM694 1659l29 123h403l56 -299h-291z" />
<glyph unicode="&#xda;" horiz-adv-x="1501" d="M94.5 399.5q-1.5 76.5 20.5 163.5l118 508q3 16 -7.5 35.5t-24.5 19.5h-47l71 308h787l-72 -308h-129l-147 -634q-37 -162 124 -162q72 0 109 35.5t53 107.5l152 653h-129l71 308h650l-72 -308h-47q-15 0 -34.5 -19.5t-22.5 -35.5l-142 -606q-60 -253 -224.5 -367 t-432.5 -114q-131 0 -235 18.5t-176 54t-121 86.5t-70 115.5t-22.5 141zM846 1483l100 299h469l-29 -123l-233 -176h-307z" />
<glyph unicode="&#xdb;" horiz-adv-x="1501" d="M94.5 399.5q-1.5 76.5 20.5 163.5l118 508q3 16 -7.5 35.5t-24.5 19.5h-47l71 308h787l-72 -308h-129l-147 -634q-37 -162 124 -162q72 0 109 35.5t53 107.5l152 653h-129l71 308h650l-72 -308h-47q-15 0 -34.5 -19.5t-22.5 -35.5l-142 -606q-60 -253 -224.5 -367 t-432.5 -114q-131 0 -235 18.5t-176 54t-121 86.5t-70 115.5t-22.5 141zM682 1483l20 86l187 213h358l119 -213l-20 -86h-216l-94 69l-121 -69h-233z" />
<glyph unicode="&#xdc;" horiz-adv-x="1501" d="M94.5 399.5q-1.5 76.5 20.5 163.5l118 508q3 16 -7.5 35.5t-24.5 19.5h-47l71 308h787l-72 -308h-129l-147 -634q-37 -162 124 -162q72 0 109 35.5t53 107.5l152 653h-129l71 308h650l-72 -308h-47q-15 0 -34.5 -19.5t-22.5 -35.5l-142 -606q-60 -253 -224.5 -367 t-432.5 -114q-131 0 -235 18.5t-176 54t-121 86.5t-70 115.5t-22.5 141zM625 1647q0 97 61 150.5t158 53.5q91 0 143.5 -48t52.5 -126q0 -101 -60.5 -156t-156.5 -55q-93 0 -145.5 49t-52.5 132zM1069 1647q0 97 61 150.5t158 53.5q91 0 144 -48t53 -126q0 -101 -60.5 -156 t-156.5 -55q-93 0 -146 49t-53 132z" />
<glyph unicode="&#xdd;" horiz-adv-x="1437" d="M154 1126l71 308h721l-72 -308h-104l88 -264h6l105 146q40 56 29.5 87t-70.5 31h-13l72 308h643l-71 -308h-17q-19 0 -46 -19.5t-44 -41.5l-451 -543l-38 -170q-3 -16 6.5 -35.5t23.5 -19.5h68l-68 -297h-790l67 297h68q15 0 35.5 20t23.5 35l43 189l-217 544 q-5 12 -21 26.5t-28 14.5h-20zM799 1483l100 299h469l-29 -123l-233 -176h-307z" />
<glyph unicode="&#xde;" horiz-adv-x="1398" d="M-106 0l67 297h49q15 0 41 20t29 35l166 719q3 15 -12.5 35t-30.5 20h-49l71 308h772l-71 -308h-103l-8 -32h133q229 0 353 -78t124 -228q0 -458 -610 -458h-176l-8 -33h102l-67 -297h-772zM696 580h47q58 0 89.5 46.5t31.5 108.5q0 42 -19 67t-57 25h-34z" />
<glyph unicode="&#xdf;" horiz-adv-x="1490" d="M-213 -332l63 277q51 11 81.5 44.5t48.5 110.5l219 953q93 405 696 405q289 0 433.5 -84.5t144.5 -222.5q0 -86 -47.5 -144.5t-125.5 -105.5q-96 -59 -124.5 -82t-28.5 -47q0 -16 15.5 -28t63.5 -38q10 -5 15 -8q113 -60 160 -116t47 -146t-29 -169t-87.5 -144 t-158.5 -103t-231 -38q-246 0 -387 75l61 271h242q16 -58 64 -58q24 0 35.5 13t11.5 30q0 23 -27.5 41.5t-101.5 53.5q-86 40 -128 93t-42 132q0 64 27 119t79 116q25 29 73.5 75.5t70.5 75.5t22 56q0 28 -20.5 45t-61.5 17q-65 0 -98 -38.5t-49 -113.5l-205 -889 q-71 -317 -365 -428h-356z" />
<glyph unicode="&#xe0;" horiz-adv-x="1220" d="M-37 254q0 83 25.5 149t68 108t102.5 69.5t125 39t140 11.5q139 0 219 -25l12 56q10 44 -15.5 68t-94.5 24q-116 0 -195 -72h-231l82 352q109 35 222 53.5t275 18.5q294 0 417.5 -101.5t74.5 -314.5l-80 -344q-3 -13 7.5 -31t21.5 -18h37l-58 -250q-127 -67 -287 -67 q-200 0 -251 139q-138 -135 -320 -135q-131 0 -214 73t-83 197zM418 1311l28 123h404l55 -299h-291zM465 319q0 -55 57 -55q22 0 41 8l37 152q-24 12 -51 12q-38 0 -61 -34.5t-23 -82.5z" />
<glyph unicode="&#xe1;" horiz-adv-x="1220" d="M-37 254q0 83 25.5 149t68 108t102.5 69.5t125 39t140 11.5q139 0 219 -25l12 56q10 44 -15.5 68t-94.5 24q-116 0 -195 -72h-231l82 352q109 35 222 53.5t275 18.5q294 0 417.5 -101.5t74.5 -314.5l-80 -344q-3 -13 7.5 -31t21.5 -18h37l-58 -250q-127 -67 -287 -67 q-200 0 -251 139q-138 -135 -320 -135q-131 0 -214 73t-83 197zM465 319q0 -55 57 -55q22 0 41 8l37 152q-24 12 -51 12q-38 0 -61 -34.5t-23 -82.5zM569 1135l101 299h469l-29 -123l-233 -176h-308z" />
<glyph unicode="&#xe2;" horiz-adv-x="1220" d="M-37 254q0 83 25.5 149t68 108t102.5 69.5t125 39t140 11.5q139 0 219 -25l12 56q10 44 -15.5 68t-94.5 24q-116 0 -195 -72h-231l82 352q109 35 222 53.5t275 18.5q294 0 417.5 -101.5t74.5 -314.5l-80 -344q-3 -13 7.5 -31t21.5 -18h37l-58 -250q-127 -67 -287 -67 q-200 0 -251 139q-138 -135 -320 -135q-131 0 -214 73t-83 197zM406 1135l20 86l186 213h359l119 -213l-21 -86h-215l-94 69l-121 -69h-233zM465 319q0 -55 57 -55q22 0 41 8l37 152q-24 12 -51 12q-38 0 -61 -34.5t-23 -82.5z" />
<glyph unicode="&#xe3;" horiz-adv-x="1220" d="M-37 254q0 83 25.5 149t68 108t102.5 69.5t125 39t140 11.5q139 0 219 -25l12 56q10 44 -15.5 68t-94.5 24q-116 0 -195 -72h-231l82 352q109 35 222 53.5t275 18.5q294 0 417.5 -101.5t74.5 -314.5l-80 -344q-3 -13 7.5 -31t21.5 -18h37l-58 -250q-127 -67 -287 -67 q-200 0 -251 139q-138 -135 -320 -135q-131 0 -214 73t-83 197zM393 1135l43 186q33 57 93.5 92t134.5 35q43 0 114.5 -16.5t95.5 -16.5q54 0 76 39h205l-43 -186q-33 -57 -93 -92t-134 -35q-43 0 -116 16.5t-97 16.5q-52 0 -74 -39h-205zM465 319q0 -55 57 -55q22 0 41 8 l37 152q-24 12 -51 12q-38 0 -61 -34.5t-23 -82.5z" />
<glyph unicode="&#xe4;" horiz-adv-x="1220" d="M-37 254q0 83 25.5 149t68 108t102.5 69.5t125 39t140 11.5q139 0 219 -25l12 56q10 44 -15.5 68t-94.5 24q-116 0 -195 -72h-231l82 352q109 35 222 53.5t275 18.5q294 0 417.5 -101.5t74.5 -314.5l-80 -344q-3 -13 7.5 -31t21.5 -18h37l-58 -250q-127 -67 -287 -67 q-200 0 -251 139q-138 -135 -320 -135q-131 0 -214 73t-83 197zM348 1298q0 97 61 151t158 54q91 0 144 -48t53 -126q0 -101 -60.5 -156t-156.5 -55q-93 0 -146 49t-53 131zM465 319q0 -55 57 -55q22 0 41 8l37 152q-24 12 -51 12q-38 0 -61 -34.5t-23 -82.5zM793 1298 q0 97 61 151t158 54q91 0 143.5 -48t52.5 -126q0 -101 -60.5 -156t-156.5 -55q-93 0 -145.5 48.5t-52.5 131.5z" />
<glyph unicode="&#xe5;" horiz-adv-x="1220" d="M-37 254q0 83 25.5 149t68 108t102.5 69.5t125 39t140 11.5q139 0 219 -25l12 56q10 44 -15.5 68t-94.5 24q-116 0 -195 -72h-231l82 352q109 35 222 53.5t275 18.5q294 0 417.5 -101.5t74.5 -314.5l-80 -344q-3 -13 7.5 -31t21.5 -18h37l-58 -250q-127 -67 -287 -67 q-200 0 -251 139q-138 -135 -320 -135q-131 0 -214 73t-83 197zM465 319q0 -55 57 -55q22 0 41 8l37 152q-24 12 -51 12q-38 0 -61 -34.5t-23 -82.5zM559 1335q0 107 70.5 167.5t167.5 60.5q92 0 154.5 -56t62.5 -145q0 -108 -69 -167.5t-167 -59.5q-93 0 -156 55.5 t-63 144.5zM707 1339q0 -34 20 -54.5t55 -20.5q38 0 62 25t24 69q0 33 -21 54.5t-56 21.5q-37 0 -60.5 -25.5t-23.5 -69.5z" />
<glyph unicode="&#xe6;" horiz-adv-x="1753" d="M-37 254q0 83 25.5 149t68 108t102.5 69.5t125 39t140 11.5q130 0 219 -21l12 52q10 44 -15.5 68t-94.5 24q-116 0 -195 -72h-231l82 352q109 35 222 53.5t275 18.5q213 0 306 -59q118 59 305 59q234 0 352.5 -94t118.5 -248q0 -76 -22.5 -135t-64.5 -98t-101.5 -66 t-134.5 -39t-163 -16.5t-186 0.5q3 -67 28 -95t81 -28q114 0 192 82h270l-71 -306q-74 -36 -189 -61t-231 -25q-373 0 -504 179q-153 -172 -391 -172q-149 0 -239.5 72.5t-90.5 197.5zM465 319q0 -31 16.5 -45t53.5 -14q34 0 86 37q-15 65 -15 135h-6q-32 4 -41 4 q-47 0 -70.5 -33.5t-23.5 -83.5zM1126 614q94 11 140.5 39.5t46.5 85.5q0 72 -58 72q-43 0 -76 -54t-53 -143z" />
<glyph unicode="&#xe7;" horiz-adv-x="1056" d="M6 416q0 311 190.5 500.5t516.5 189.5q289 0 436 -70l-82 -354h-272q-7 46 -26 69t-62 23q-52 0 -94 -63.5t-61.5 -146t-19.5 -158.5q0 -119 93 -119q43 0 74 19.5t61 62.5h252l-74 -314q-64 -32 -164.5 -55t-202.5 -23q-31 0 -61 3l-6 -31q74 -7 110.5 -41.5t36.5 -87.5 q0 -86 -69.5 -132t-190.5 -46q-143 0 -213 34l31 138h115q11 -25 38 -25q15 0 25 8t10 21q0 28 -39 28h-47l35 154q-340 77 -340 416z" />
<glyph unicode="&#xe8;" horiz-adv-x="1153" d="M6 403q0 321 196 512t517 191q225 0 343 -94.5t118 -247.5q0 -91 -33 -158t-89.5 -108t-144 -64t-184 -30t-221.5 -3q4 -63 29 -88.5t79 -25.5q121 0 199 82h264l-71 -306q-74 -36 -189 -61t-231 -25q-132 0 -234 23t-167 62t-106.5 94.5t-58 115.5t-16.5 131zM362 1311 l29 123h404l55 -299h-291zM524 606q189 23 189 133q0 72 -58 72q-45 0 -79 -57t-52 -148z" />
<glyph unicode="&#xe9;" horiz-adv-x="1153" d="M6 403q0 321 196 512t517 191q225 0 343 -94.5t118 -247.5q0 -91 -33 -158t-89.5 -108t-144 -64t-184 -30t-221.5 -3q4 -63 29 -88.5t79 -25.5q121 0 199 82h264l-71 -306q-74 -36 -189 -61t-231 -25q-132 0 -234 23t-167 62t-106.5 94.5t-58 115.5t-16.5 131zM514 1135 l100 299h469l-28 -123l-234 -176h-307zM524 606q189 23 189 133q0 72 -58 72q-45 0 -79 -57t-52 -148z" />
<glyph unicode="&#xea;" horiz-adv-x="1153" d="M6 403q0 321 196 512t517 191q225 0 343 -94.5t118 -247.5q0 -91 -33 -158t-89.5 -108t-144 -64t-184 -30t-221.5 -3q4 -63 29 -88.5t79 -25.5q121 0 199 82h264l-71 -306q-74 -36 -189 -61t-231 -25q-132 0 -234 23t-167 62t-106.5 94.5t-58 115.5t-16.5 131zM350 1135 l21 86l186 213h358l119 -213l-20 -86h-215l-94 69l-121 -69h-234zM524 606q189 23 189 133q0 72 -58 72q-45 0 -79 -57t-52 -148z" />
<glyph unicode="&#xeb;" horiz-adv-x="1153" d="M6 403q0 321 196 512t517 191q225 0 343 -94.5t118 -247.5q0 -91 -33 -158t-89.5 -108t-144 -64t-184 -30t-221.5 -3q4 -63 29 -88.5t79 -25.5q121 0 199 82h264l-71 -306q-74 -36 -189 -61t-231 -25q-132 0 -234 23t-167 62t-106.5 94.5t-58 115.5t-16.5 131zM293 1298 q0 97 61 151t158 54q91 0 144 -48t53 -126q0 -101 -60.5 -156t-156.5 -55q-93 0 -146 49t-53 131zM524 606q189 23 189 133q0 72 -58 72q-45 0 -79 -57t-52 -148zM737 1298q0 97 61 151t158 54q91 0 144 -48t53 -126q0 -101 -60.5 -156t-156.5 -55q-93 0 -146 49t-53 131z " />
<glyph unicode="&#xec;" horiz-adv-x="733" d="M43 272l102 447q3 14 -5 31.5t-21 17.5h-64l60 264q93 33 173 49.5t193 16.5q127 0 187 -74.5t32 -194.5l-112 -483q-3 -14 6.5 -31.5t21.5 -17.5h64l-57 -250q-109 -67 -332 -67q-156 0 -220 68.5t-28 223.5zM186 1311l29 123h403l56 -299h-291z" />
<glyph unicode="&#xed;" horiz-adv-x="733" d="M43 272l102 447q3 14 -5 31.5t-21 17.5h-64l60 264q93 33 173 49.5t193 16.5q127 0 187 -74.5t32 -194.5l-112 -483q-3 -14 6.5 -31.5t21.5 -17.5h64l-57 -250q-109 -67 -332 -67q-156 0 -220 68.5t-28 223.5zM338 1135l100 299h469l-28 -123l-234 -176h-307z" />
<glyph unicode="&#xee;" horiz-adv-x="733" d="M43 272l102 447q3 14 -5 31.5t-21 17.5h-64l60 264q93 33 173 49.5t193 16.5q127 0 187 -74.5t32 -194.5l-112 -483q-3 -14 6.5 -31.5t21.5 -17.5h64l-57 -250q-109 -67 -332 -67q-156 0 -220 68.5t-28 223.5zM174 1135l21 86l186 213h358l119 -213l-20 -86h-215l-95 69 l-120 -69h-234z" />
<glyph unicode="&#xef;" horiz-adv-x="733" d="M43 272l102 447q3 14 -5 31.5t-21 17.5h-64l60 264q93 33 173 49.5t193 16.5q127 0 187 -74.5t32 -194.5l-112 -483q-3 -14 6.5 -31.5t21.5 -17.5h64l-57 -250q-109 -67 -332 -67q-156 0 -220 68.5t-28 223.5zM117 1298q0 97 61 151t158 54q91 0 143.5 -48t52.5 -126 q0 -101 -60.5 -156t-156.5 -55q-93 0 -145.5 48.5t-52.5 131.5zM561 1298q0 97 61 151t158 54q91 0 144 -48t53 -126q0 -101 -60.5 -156t-156.5 -55q-93 0 -146 49t-53 131z" />
<glyph unicode="&#xf0;" horiz-adv-x="1282" d="M4 430q0 111 30.5 203.5t80.5 154.5t115 105t132.5 62.5t135.5 19.5q179 0 250 -98q-23 113 -89 176l-77 -49h-234l17 71l110 70q-39 11 -115 26l62 263h264q86 -19 158 -52l78 52h233l-16 -72l-119 -76q266 -193 266 -524q0 -367 -192 -576t-523 -209q-269 0 -418 124 t-149 329zM520 373q0 -99 66 -99q39 0 74 62t53 144t18 153q0 98 -67 98q-39 0 -73.5 -61.5t-52.5 -143.5t-18 -153z" />
<glyph unicode="&#xf1;" horiz-adv-x="1359" d="M-8 49l153 670q3 14 -5 31.5t-21 17.5h-64l60 264q93 33 173 49.5t193 16.5q105 0 165.5 -52.5t62.5 -142.5q203 203 407 203q129 0 194 -77t31 -224l-106 -459q-3 -14 7 -31.5t22 -17.5h51l-58 -250q-109 -67 -319 -67q-156 0 -220 68.5t-28 223.5l80 351q10 44 -9 64 t-87 24h-2l-164 -711h-485q-16 0 -25 17t-6 32zM463 1135l43 186q33 57 93 92t134 35q43 0 115 -16.5t96 -16.5q54 0 76 39h205l-43 -186q-33 -57 -93.5 -92t-134.5 -35q-43 0 -116 16.5t-97 16.5q-51 0 -73 -39h-205z" />
<glyph unicode="&#xf2;" horiz-adv-x="1259" d="M8 465q0 123 45.5 237t128 204.5t210.5 145t282 54.5q274 0 427.5 -130.5t153.5 -357.5q0 -123 -45 -236.5t-127 -203.5t-209.5 -144t-281.5 -54q-276 0 -430 128t-154 357zM403 1311l29 123h404l55 -299h-291zM524 387q0 -98 66 -98q43 0 77.5 64.5t51 150t16.5 164.5 q0 98 -67 98q-43 0 -77.5 -64.5t-50.5 -149.5t-16 -165z" />
<glyph unicode="&#xf3;" horiz-adv-x="1259" d="M8 465q0 123 45.5 237t128 204.5t210.5 145t282 54.5q274 0 427.5 -130.5t153.5 -357.5q0 -123 -45 -236.5t-127 -203.5t-209.5 -144t-281.5 -54q-276 0 -430 128t-154 357zM524 387q0 -98 66 -98q43 0 77.5 64.5t51 150t16.5 164.5q0 98 -67 98q-43 0 -77.5 -64.5 t-50.5 -149.5t-16 -165zM555 1135l100 299h469l-28 -123l-234 -176h-307z" />
<glyph unicode="&#xf4;" horiz-adv-x="1259" d="M8 465q0 123 45.5 237t128 204.5t210.5 145t282 54.5q274 0 427.5 -130.5t153.5 -357.5q0 -123 -45 -236.5t-127 -203.5t-209.5 -144t-281.5 -54q-276 0 -430 128t-154 357zM391 1135l21 86l186 213h358l119 -213l-20 -86h-215l-95 69l-120 -69h-234zM524 387 q0 -98 66 -98q43 0 77.5 64.5t51 150t16.5 164.5q0 98 -67 98q-43 0 -77.5 -64.5t-50.5 -149.5t-16 -165z" />
<glyph unicode="&#xf5;" horiz-adv-x="1259" d="M8 465q0 123 45.5 237t128 204.5t210.5 145t282 54.5q274 0 427.5 -130.5t153.5 -357.5q0 -123 -45 -236.5t-127 -203.5t-209.5 -144t-281.5 -54q-276 0 -430 128t-154 357zM379 1135l43 186q33 57 93 92t134 35q43 0 115 -16.5t96 -16.5q54 0 76 39h205l-43 -186 q-33 -57 -93.5 -92t-134.5 -35q-43 0 -116 16.5t-97 16.5q-51 0 -73 -39h-205zM524 387q0 -98 66 -98q43 0 77.5 64.5t51 150t16.5 164.5q0 98 -67 98q-43 0 -77.5 -64.5t-50.5 -149.5t-16 -165z" />
<glyph unicode="&#xf6;" horiz-adv-x="1259" d="M8 465q0 123 45.5 237t128 204.5t210.5 145t282 54.5q274 0 427.5 -130.5t153.5 -357.5q0 -123 -45 -236.5t-127 -203.5t-209.5 -144t-281.5 -54q-276 0 -430 128t-154 357zM334 1298q0 97 61 151t158 54q91 0 144 -48t53 -126q0 -101 -61 -156t-157 -55 q-93 0 -145.5 48.5t-52.5 131.5zM524 387q0 -98 66 -98q43 0 77.5 64.5t51 150t16.5 164.5q0 98 -67 98q-43 0 -77.5 -64.5t-50.5 -149.5t-16 -165zM778 1298q0 97 61 151t158 54q91 0 144 -48t53 -126q0 -101 -60.5 -156t-156.5 -55q-93 0 -146 49t-53 131z" />
<glyph unicode="&#xf7;" horiz-adv-x="1067" d="M14 528l82 359h1039l-82 -359h-1039zM256 272q0 101 70 167.5t166 66.5t159.5 -60.5t63.5 -146.5q0 -96 -70 -161.5t-166 -65.5q-95 0 -159 60t-64 140zM430 1110q0 100 70 166.5t166 66.5t159.5 -60t63.5 -146q0 -97 -70 -162.5t-166 -65.5q-94 0 -158.5 60.5 t-64.5 140.5z" />
<glyph unicode="&#xf8;" horiz-adv-x="1259" d="M-63 -59l196 192q-125 125 -125 332q0 123 45.5 237t128 204.5t210.5 145t282 54.5q212 0 358 -84l111 108h194l-196 -194q114 -123 114 -318q0 -123 -45 -236.5t-127 -203.5t-209.5 -144t-281.5 -54q-209 0 -348 71l-113 -110h-194zM516 319q19 -45 72 -45q52 0 92 78.5 t59 188.5zM520 516l221 219q-19 45 -71 45q-51 0 -91 -78t-59 -186z" />
<glyph unicode="&#xf9;" horiz-adv-x="1351" d="M45 281l100 438q3 14 -5 31.5t-21 17.5h-64l60 264q93 33 173 49.5t193 16.5q127 0 187 -74.5t32 -194.5l-88 -378q-10 -47 6.5 -71t81.5 -30l168 735h488q16 0 24.5 -17t5.5 -32l-159 -690q-3 -14 6.5 -31.5t21.5 -17.5h52l-58 -250q-109 -67 -319 -67q-132 0 -197.5 48 t-62.5 154q-97 -102 -188 -152t-203 -50q-136 0 -202 76.5t-32 224.5zM463 1311l29 123h403l55 -299h-291z" />
<glyph unicode="&#xfa;" horiz-adv-x="1351" d="M45 281l100 438q3 14 -5 31.5t-21 17.5h-64l60 264q93 33 173 49.5t193 16.5q127 0 187 -74.5t32 -194.5l-88 -378q-10 -47 6.5 -71t81.5 -30l168 735h488q16 0 24.5 -17t5.5 -32l-159 -690q-3 -14 6.5 -31.5t21.5 -17.5h52l-58 -250q-109 -67 -319 -67q-132 0 -197.5 48 t-62.5 154q-97 -102 -188 -152t-203 -50q-136 0 -202 76.5t-32 224.5zM614 1135l101 299h469l-29 -123l-233 -176h-308z" />
<glyph unicode="&#xfb;" horiz-adv-x="1351" d="M45 281l100 438q3 14 -5 31.5t-21 17.5h-64l60 264q93 33 173 49.5t193 16.5q127 0 187 -74.5t32 -194.5l-88 -378q-10 -47 6.5 -71t81.5 -30l168 735h488q16 0 24.5 -17t5.5 -32l-159 -690q-3 -14 6.5 -31.5t21.5 -17.5h52l-58 -250q-109 -67 -319 -67q-132 0 -197.5 48 t-62.5 154q-97 -102 -188 -152t-203 -50q-136 0 -202 76.5t-32 224.5zM451 1135l20 86l186 213h359l119 -213l-21 -86h-215l-94 69l-121 -69h-233z" />
<glyph unicode="&#xfc;" horiz-adv-x="1351" d="M45 281l100 438q3 14 -5 31.5t-21 17.5h-64l60 264q93 33 173 49.5t193 16.5q127 0 187 -74.5t32 -194.5l-88 -378q-10 -47 6.5 -71t81.5 -30l168 735h488q16 0 24.5 -17t5.5 -32l-159 -690q-3 -14 6.5 -31.5t21.5 -17.5h52l-58 -250q-109 -67 -319 -67q-132 0 -197.5 48 t-62.5 154q-97 -102 -188 -152t-203 -50q-136 0 -202 76.5t-32 224.5zM393 1298q0 97 61 151t158 54q91 0 144 -48t53 -126q0 -101 -60.5 -156t-156.5 -55q-93 0 -146 49t-53 131zM838 1298q0 97 61 151t158 54q91 0 143.5 -48t52.5 -126q0 -101 -60.5 -156t-156.5 -55 q-93 0 -145.5 48.5t-52.5 131.5z" />
<glyph unicode="&#xfd;" horiz-adv-x="1331" d="M-59 -283l71 314h301q23 -62 136 -62q87 0 134 42t68 132l17 70q-180 -143 -375 -143q-131 0 -197.5 76.5t-36.5 203.5l86 369q3 14 -5 31.5t-21 17.5h-64l60 264q93 33 173 49.5t193 16.5q127 0 187 -74.5t32 -194.5l-84 -358q-10 -46 7 -70t82 -30l163 714h488 q16 0 24.5 -17t5.5 -32l-223 -964q-23 -99 -73 -174t-135 -132.5t-215 -87.5t-302 -30q-352 0 -497 69zM625 1135l100 299h469l-29 -123l-233 -176h-307z" />
<glyph unicode="&#xfe;" horiz-adv-x="1269" d="M-248 -332l64 277h41q13 0 34.5 17.5t24.5 31.5l250 1083q3 14 -7 31.5t-20 17.5h-55l72 308h540q33 0 50.5 -29t7.5 -72l-90 -391q141 164 307 164q129 0 215 -92.5t86 -257.5q0 -382 -191 -580q-139 -145 -350 -145q-169 0 -260 75l-37 -161h70l-64 -277h-688zM520 319 q19 -8 49 -8q68 0 118 83.5t50 203.5q0 62 -28.5 90t-94.5 37z" />
<glyph unicode="&#xff;" horiz-adv-x="1331" d="M-59 -283l71 314h301q23 -62 136 -62q87 0 134 42t68 132l17 70q-180 -143 -375 -143q-131 0 -197.5 76.5t-36.5 203.5l86 369q3 14 -5 31.5t-21 17.5h-64l60 264q93 33 173 49.5t193 16.5q127 0 187 -74.5t32 -194.5l-84 -358q-10 -46 7 -70t82 -30l163 714h488 q16 0 24.5 -17t5.5 -32l-223 -964q-23 -99 -73 -174t-135 -132.5t-215 -87.5t-302 -30q-352 0 -497 69zM379 1298q0 97 61 151t158 54q91 0 144 -48t53 -126q0 -101 -60.5 -156t-156.5 -55q-93 0 -146 49t-53 131zM823 1298q0 97 61 151t158 54q91 0 144 -48t53 -126 q0 -101 -60.5 -156t-156.5 -55q-93 0 -146 49t-53 131z" />
<glyph unicode="&#x152;" horiz-adv-x="2058" d="M49 588q0 113 24.5 217.5t74 200t129 173t184 135t245 89t306.5 31.5h1208l-115 -494h-313l-18 162h-209l-49 -209h301l-76 -322h-299l-58 -249h220l90 198h338l-121 -520h-1145q-345 0 -531 155.5t-186 432.5zM618 563q0 -114 47.5 -179t131.5 -65h26l183 793h-33 q-161 0 -258 -151t-97 -398z" />
<glyph unicode="&#x153;" horiz-adv-x="1867" d="M8 465q0 123 45.5 237t128 204.5t210.5 145t282 54.5q223 0 358 -123q154 123 404 123q226 0 342 -94t116 -248q0 -91 -33 -158t-89.5 -108t-143.5 -64t-183.5 -30t-221.5 -3q4 -63 29 -88.5t79 -25.5q115 0 193 82h270l-72 -306q-74 -36 -188.5 -61t-230.5 -25 q-269 0 -396 111q-143 -108 -315 -108q-276 0 -430 128t-154 357zM524 387q0 -98 66 -98q43 0 77.5 64.5t51 150t16.5 164.5q0 98 -67 98q-43 0 -77.5 -64.5t-50.5 -149.5t-16 -165zM1239 606q188 22 188 133q0 72 -57 72q-45 0 -79 -57t-52 -148z" />
<glyph unicode="&#x178;" horiz-adv-x="1437" d="M154 1126l71 308h721l-72 -308h-104l88 -264h6l105 146q40 56 29.5 87t-70.5 31h-13l72 308h643l-71 -308h-17q-19 0 -46 -19.5t-44 -41.5l-451 -543l-38 -170q-3 -16 6.5 -35.5t23.5 -19.5h68l-68 -297h-790l67 297h68q15 0 35.5 20t23.5 35l43 189l-217 544 q-5 12 -21 26.5t-28 14.5h-20zM578 1647q0 97 61 150.5t158 53.5q91 0 143.5 -48t52.5 -126q0 -101 -60.5 -156t-156.5 -55q-93 0 -145.5 49t-52.5 132zM1022 1647q0 97 61 150.5t158 53.5q91 0 144 -48t53 -126q0 -101 -60.5 -156t-156.5 -55q-93 0 -146 49t-53 132z" />
<glyph unicode="&#x2c6;" horiz-adv-x="819" d="M217 1135l21 86l186 213h358l119 -213l-20 -86h-215l-95 69l-120 -69h-234z" />
<glyph unicode="&#x2dc;" horiz-adv-x="819" d="M205 1135l43 186q33 57 93 92t134 35q43 0 115 -16.5t96 -16.5q54 0 76 39h205l-43 -186q-33 -57 -93.5 -92t-134.5 -35q-43 0 -116 16.5t-97 16.5q-51 0 -73 -39h-205z" />
<glyph unicode="&#x2000;" horiz-adv-x="955" />
<glyph unicode="&#x2001;" horiz-adv-x="1911" />
<glyph unicode="&#x2002;" horiz-adv-x="955" />
<glyph unicode="&#x2003;" horiz-adv-x="1911" />
<glyph unicode="&#x2004;" horiz-adv-x="637" />
<glyph unicode="&#x2005;" horiz-adv-x="477" />
<glyph unicode="&#x2006;" horiz-adv-x="318" />
<glyph unicode="&#x2007;" horiz-adv-x="318" />
<glyph unicode="&#x2008;" horiz-adv-x="238" />
<glyph unicode="&#x2009;" horiz-adv-x="382" />
<glyph unicode="&#x200a;" horiz-adv-x="106" />
<glyph unicode="&#x2010;" horiz-adv-x="604" d="M0 426l84 367h555l-84 -367h-555z" />
<glyph unicode="&#x2011;" horiz-adv-x="604" d="M0 426l84 367h555l-84 -367h-555z" />
<glyph unicode="&#x2012;" horiz-adv-x="604" d="M0 426l84 367h555l-84 -367h-555z" />
<glyph unicode="&#x2013;" horiz-adv-x="849" d="M-6 403l80 342h800l-79 -342h-801z" />
<glyph unicode="&#x2014;" horiz-adv-x="1423" d="M-6 403l80 342h1374l-80 -342h-1374z" />
<glyph unicode="&#x2018;" horiz-adv-x="466" d="M129 1012q0 195 143 305t390 121l-39 -164q-64 -10 -105 -33t-41 -59q0 -12 5 -20t19.5 -21t24.5 -25q14 -17 20 -26t12.5 -28.5t6.5 -43.5q0 -94 -63.5 -154.5t-163.5 -60.5q-90 0 -149.5 55t-59.5 154z" />
<glyph unicode="&#x2019;" horiz-adv-x="466" d="M82 821l39 164q64 10 104.5 33t40.5 59q0 12 -5 20t-19.5 21t-24.5 25q-14 17 -20 26t-12.5 28.5t-6.5 43.5q0 94 64 154.5t164 60.5q90 0 149 -55t59 -154q0 -196 -142.5 -305.5t-389.5 -120.5z" />
<glyph unicode="&#x201a;" horiz-adv-x="468" d="M-164 -246l39 164q64 10 104.5 33t40.5 59q0 12 -5 20t-19.5 21t-24.5 25q-14 17 -20 26t-12.5 28.5t-6.5 43.5q0 94 64 154.5t164 60.5q90 0 149.5 -55t59.5 -154q0 -195 -143 -305t-390 -121z" />
<glyph unicode="&#x201c;" horiz-adv-x="931" d="M129 1012q0 195 143 305t390 121l-39 -164q-64 -10 -105 -33t-41 -59q0 -12 5 -20t19.5 -21t24.5 -25q14 -17 20 -26t12.5 -28.5t6.5 -43.5q0 -94 -63.5 -154.5t-163.5 -60.5q-90 0 -149.5 55t-59.5 154zM594 1012q0 196 142.5 305.5t389.5 120.5l-39 -164 q-64 -10 -104.5 -33t-40.5 -59q0 -12 5 -20t19.5 -21t24.5 -25q14 -17 20 -26t12.5 -28.5t6.5 -43.5q0 -94 -63.5 -154.5t-163.5 -60.5q-90 0 -149.5 55t-59.5 154z" />
<glyph unicode="&#x201d;" horiz-adv-x="931" d="M82 821l39 164q64 10 104.5 33t40.5 59q0 12 -5 20t-19.5 21t-24.5 25q-14 17 -20 26t-12.5 28.5t-6.5 43.5q0 94 64 154.5t164 60.5q90 0 149 -55t59 -154q0 -196 -142.5 -305.5t-389.5 -120.5zM547 821l39 164q64 10 104.5 33t40.5 59q0 12 -5 20t-19.5 21t-24.5 25 q-14 17 -20 26t-12.5 28.5t-6.5 43.5q0 94 63.5 154.5t163.5 60.5q90 0 149.5 -55t59.5 -154q0 -196 -142.5 -305.5t-389.5 -120.5z" />
<glyph unicode="&#x201e;" horiz-adv-x="933" d="M-164 -246l39 164q64 10 104.5 33t40.5 59q0 12 -5 20t-19.5 21t-24.5 25q-14 17 -20 26t-12.5 28.5t-6.5 43.5q0 94 64 154.5t164 60.5q90 0 149.5 -55t59.5 -154q0 -195 -143 -305t-390 -121zM301 -246l39 164q64 10 104.5 33t40.5 59q0 12 -5 20t-19.5 21t-24.5 25 q-14 17 -20 26t-12.5 28.5t-6.5 43.5q0 94 64 154.5t164 60.5q90 0 149.5 -55t59.5 -154q0 -195 -143 -305t-390 -121z" />
<glyph unicode="&#x2022;" horiz-adv-x="737" d="M20 547q0 88 31 160t83 118.5t119 71.5t142 25q150 0 244 -89t94 -233q0 -119 -52.5 -205.5t-135.5 -128t-185 -41.5q-149 0 -244.5 89t-95.5 233z" />
<glyph unicode="&#x2026;" horiz-adv-x="1437" d="M-68 184q0 101 70 167.5t166 66.5t159.5 -60.5t63.5 -146.5q0 -97 -69.5 -162t-165.5 -65q-95 0 -159.5 60t-64.5 140zM412 184q0 101 69.5 167.5t165.5 66.5t159.5 -60.5t63.5 -146.5q0 -97 -69.5 -162t-165.5 -65q-95 0 -159 60t-64 140zM891 184q0 101 69.5 167.5 t165.5 66.5t160 -60.5t64 -146.5q0 -96 -70 -161.5t-166 -65.5q-95 0 -159 60t-64 140z" />
<glyph unicode="&#x202f;" horiz-adv-x="382" />
<glyph unicode="&#x2039;" horiz-adv-x="612" d="M8 477l37 158l361 348h290l-24 -104l-256 -347v-6l96 -336l-25 -108h-249z" />
<glyph unicode="&#x203a;" horiz-adv-x="612" d="M-84 82l25 104l256 346v7l-97 335l25 109h250l229 -395l-37 -158l-360 -348h-291z" />
<glyph unicode="&#x205f;" horiz-adv-x="477" />
<glyph unicode="&#x20ac;" horiz-adv-x="1323" d="M0 473l45 197h98q1 12 11 61h-95l47 197h101q46 118 116.5 212.5t168.5 167t229.5 111.5t288.5 39q295 0 485 -96l-90 -383h-283q-9 111 -121 111q-117 0 -196 -162h254l-76 -197h-242q-2 -10 -7 -30.5t-7 -30.5h234l-74 -197h-176q5 -67 32 -97t86 -30q109 0 187 100 h266l-88 -380q-189 -91 -410 -91q-164 0 -291 39t-204.5 107.5t-117 157.5t-40.5 194h-131z" />
<glyph unicode="&#x2122;" horiz-adv-x="1517" d="M170 1196l55 238h598l-55 -238h-133l4 88h-21l-59 -262q-2 -6 3 -14.5t11 -8.5h27l-33 -139h-352l33 139h26q6 0 13.5 8.5t9.5 14.5l59 262h-20l-37 -88h-129zM717 860l33 139h24q6 0 12.5 8t8.5 15l57 246q2 6 -2 14t-10 8h-25l35 144h360l9 -197h2l94 197h395l-35 -144 h-24q-6 0 -13.5 -8t-9.5 -14l-57 -246q-2 -6 3 -14.5t11 -8.5h25l-33 -139h-336l33 139h39l53 236h-2l-186 -375h-140l-14 375h-2l-53 -236h43l-33 -139h-262z" />
<glyph unicode="&#xe000;" horiz-adv-x="1095" d="M0 0v1096h1096v-1096h-1096z" />
</font>
</defs>
</svg>
